<svg viewBox="0 0 24 24" xmlns="http://www.w3.org/2000/svg">
  <path d="M2.25 19.3c-.16-.33-.29-.66-.24-1.04.07-.58.45-.92.9-1.23.78-.52 1.54-1.06 2.32-1.59.64-.44 1.37-.39 1.93.14.4.38.8.76 1.18 1.16.23.24.49.32.78.19.44-.2.89-.4 1.29-.67 1.43-.96 2.63-2.16 3.79-3.42.82-.89 1.59-1.82 2.17-2.89.14-.26.25-.55.34-.83s.02-.52-.21-.73c-.38-.34-.74-.71-1.1-1.07-.66-.64-.74-1.32-.25-2.09.57-.88 1.15-1.76 1.74-2.63.46-.68 1.51-.81 2.11-.25.65.61 1.31 1.22 1.91 1.87.6.64.83 1.44.85 2.3.04 1.23-.31 2.38-.79 3.49-.67 1.54-1.58 2.93-2.61 4.24A27.7 27.7 0 0 1 15 17.82c-1.67 1.49-3.46 2.79-5.55 3.64-.99.4-2 .67-3.08.61-.69-.04-1.33-.22-1.89-.63-.03-.02-.07-.03-.11-.05l-2.14-2.08z"/>
</svg>
