<svg id="SvgjsSvg1001" width="288" height="288" xmlns="http://www.w3.org/2000/svg" version="1.1" xmlns:xlink="http://www.w3.org/1999/xlink" xmlns:svgjs="http://svgjs.com/svgjs"><defs id="SvgjsDefs1002"></defs><g id="SvgjsG1008"><svg xmlns="http://www.w3.org/2000/svg" viewBox="0 0 24 24" width="288" height="288"><path d="M14.131 10.795c-.28 0-.5-.22-.5-.5a3.06 3.06 0 0 0-3.04-3.05c-.28 0-.5-.22-.5-.5s.22-.5.5-.5c2.23 0 4.04 1.81 4.04 4.04 0 .28-.22.5-.5.5z" fill="#ffffff" class="svgShape color000000-0 selectable"></path><path d="M16.25 10.685c-.28 0-.5-.22-.5-.5 0-2.75-2.239-4.99-4.988-4.99-.28 0-.5-.22-.5-.5s.22-.5.5-.5a6 6 0 0 1 5.988 5.99c0 .28-.22.5-.5.5" fill="#ffffff" class="svgShape color000000-1 selectable"></path><path d="M18.399 10.435c-.28 0-.5-.22-.5-.5 0-3.81-3.1-6.91-6.909-6.91-.28 0-.5-.22-.5-.5s.22-.5.5-.5c4.36 0 7.909 3.55 7.909 7.91 0 .28-.22.5-.5.5m-1.989 3.11s-.01.07-.02.12a.7.7 0 0 1-.1.16 5.52 5.52 0 0 1-5.049 1.67v6.13c.01.1-.03.18-.1.24a.32.32 0 0 1-.24.11h-2.91c-.19 0-.35-.16-.35-.35v-7.38c-1.41-1.03-2.319-2.69-2.509-4.59-.19-2.07.46-4.08 1.77-5.38.1-.1.27-.12.38-.06.04.02.08.04.12.07.03.03.06.07.07.12q.03.075.03.15c0 .08-.02.17-.08.23-.51.54.37 2.89 2.97 5.49 2.399 2.4 4.808 3.5 5.458 2.99.03-.03.07-.04.12-.05s.11-.02.16 0c.02 0 .04 0 .05.01.04.02.08.04.12.07.02.01.03.02.04.04.02.02.03.04.04.06.02.04.03.08.03.14z" fill="#ffffff" class="svgShape color000000-2 selectable"></path></svg></g></svg>