<svg width="800" height="600" xmlns="http://www.w3.org/2000/svg">
 <g id="Layer_1">
  <title>Layer 1</title>
  <g fill="white">
   <path d="m390.36887,307.26127c-0.16,-0.33 -0.29,-0.66 -0.24,-1.04c0.07,-0.58 0.45,-0.92 0.9,-1.23c0.78,-0.52 1.54,-1.06 2.32,-1.59c0.64,-0.44 1.37,-0.39 1.93,0.14c0.4,0.38 0.8,0.76 1.18,1.16c0.23,0.24 0.49,0.32 0.78,0.19c0.44,-0.2 0.89,-0.4 1.29,-0.67c1.43,-0.96 2.63,-2.16 3.79,-3.42c0.82,-0.89 1.59,-1.82 2.17,-2.89c0.14,-0.26 0.25,-0.55 0.34,-0.83s0.02,-0.52 -0.21,-0.73c-0.38,-0.34 -0.74,-0.71 -1.1,-1.07c-0.66,-0.64 -0.74,-1.32 -0.25,-2.09c0.57,-0.88 1.15,-1.76 1.74,-2.63c0.46,-0.68 1.51,-0.81 2.11,-0.25c0.65,0.61 1.31,1.22 1.91,1.87c0.6,0.64 0.83,1.44 0.85,2.3c0.04,1.23 -0.31,2.38 -0.79,3.49c-0.67,1.54 -1.58,2.93 -2.61,4.24a27.7,27.7 0 0 1 -3.36,3.57c-1.67,1.49 -3.46,2.79 -5.55,3.64c-0.99,0.4 -2,0.67 -3.08,0.61c-0.69,-0.04 -1.33,-0.22 -1.89,-0.63c-0.03,-0.02 -0.07,-0.03 -0.11,-0.05l-2.14,-2.08l0.02,-0.01z"/>
  </g>
  <g fill="white">
   <path d="m402.13176,298.795c-0.28,0 -0.5,-0.22 -0.5,-0.5a3.06,3.06 0 0 0 -3.04,-3.05c-0.28,0 -0.5,-0.22 -0.5,-0.5s0.22,-0.5 0.5,-0.5c2.23,0 4.04,1.81 4.04,4.04c0,0.28 -0.22,0.5 -0.5,0.5l0,0.01z"/>
   <path d="m404.25076,298.685c-0.28,0 -0.5,-0.22 -0.5,-0.5c0,-2.75 -2.239,-4.99 -4.988,-4.99c-0.28,0 -0.5,-0.22 -0.5,-0.5s0.22,-0.5 0.5,-0.5a6,6 0 0 1 5.988,5.99c0,0.28 -0.22,0.5 -0.5,0.5"/>
   <path d="m406.39976,298.435c-0.28,0 -0.5,-0.22 -0.5,-0.5c0,-3.81 -3.1,-6.91 -6.909,-6.91c-0.28,0 -0.5,-0.22 -0.5,-0.5s0.22,-0.5 0.5,-0.5c4.36,0 7.909,3.55 7.909,7.91c0,0.28 -0.22,0.5 -0.5,0.5m-1.989,3.11s-0.01,0.07 -0.02,0.12a0.7,0.7 0 0 1 -0.1,0.16a5.52,5.52 0 0 1 -5.049,1.67l0,6.13c0.01,0.1 -0.03,0.18 -0.1,0.24a0.32,0.32 0 0 1 -0.24,0.11l-2.91,0c-0.19,0 -0.35,-0.16 -0.35,-0.35l0,-7.38c-1.41,-1.03 -2.319,-2.69 -2.509,-4.59c-0.19,-2.07 0.46,-4.08 1.77,-5.38c0.1,-0.1 0.27,-0.12 0.38,-0.06c0.04,0.02 0.08,0.04 0.12,0.07c0.03,0.03 0.06,0.07 0.07,0.12q0.03,0.075 0.03,0.15c0,0.08 -0.02,0.17 -0.08,0.23c-0.51,0.54 0.37,2.89 2.97,5.49c2.399,2.4 4.808,3.5 5.458,2.99c0.03,-0.03 0.07,-0.04 0.12,-0.05s0.11,-0.02 0.16,0c0.02,0 0.04,0 0.05,0.01c0.04,0.02 0.08,0.04 0.12,0.07c0.02,0.01 0.03,0.02 0.04,0.04c0.02,0.02 0.03,0.04 0.04,0.06c0.02,0.04 0.03,0.08 0.03,0.14l0,0.01z"/>
  </g>
 </g>

</svg>