<svg viewBox="0 0 24 24" xmlns="http://www.w3.org/2000/svg">
  <path d="M19.924 10.46c-.63-.55-1.36-.95-2.15-1.18.06-.35.08-.7.08-1.05 0-2.08-1.08-4.05-2.8-5.13a.7.7 0 0 0-.37-.1c-.22 0-.42.09-.56.28-.22.29-.18.69.08.94.73.67 1.15 1.62 1.15 2.61 0 1.58-1.03 2.96-2.51 3.36-.04 0-.07 0-.09.02-.24.06-.5.08-.75.08s-.49-.03-.73-.08c-.04 0-.08-.02-.13-.03-1.47-.41-2.49-1.78-2.49-3.35 0-1 .41-1.95 1.14-2.61A.706.706 0 0 0 9.314 3c-.13 0-.26.04-.37.11-1.72 1.09-2.79 3.05-2.79 5.12 0 .36.03.7.08 1.05-.79.22-1.52.64-2.15 1.18-1.55 1.33-2.32 3.43-2.02 5.49.05.35.35.6.69.6h.04c.37-.02.66-.32.67-.68.03-1 .47-1.94 1.21-2.58.6-.52 1.36-.81 2.14-.81.99 0 1.93.45 2.57 1.23.58.71.86 1.61.78 2.55-.07.93-.5 1.76-1.19 2.35-.6.52-1.37.82-2.15.82-.15 0-.31 0-.5-.04h-.1c-.32 0-.61.22-.68.54-.08.35.11.71.46.82.6.21 1.24.31 1.87.31a5.8 5.8 0 0 0 3.77-1.41c.13-.11.25-.23.37-.36.11.12.23.23.36.35a5.8 5.8 0 0 0 5.66 1.1c.35-.11.54-.48.46-.82a.69.69 0 0 0-.68-.54h-.1a3.22 3.22 0 0 1-2.65-.78 3.5 3.5 0 0 1-1.19-2.36c-.08-.92.2-1.82.78-2.54.65-.78 1.58-1.23 2.57-1.23.78 0 1.55.29 2.15.81.74.64 1.17 1.57 1.2 2.58 0 .37.3.66.66.68h.05c.35 0 .65-.25.69-.6.3-2.06-.47-4.16-2.01-5.49zm-7.92 3.98c-.82 0-1.49-.67-1.49-1.51s.67-1.51 1.49-1.51 1.48.68 1.48 1.51-.67 1.51-1.48 1.51"/>
  <path d="M9.42 16.23c0 .37-.03.72-.11 1.06a.72.72 0 0 1-.44.49c-.07.03-.16.05-.24.05-.14 0-.28-.05-.4-.13a5.36 5.36 0 0 1-2.26-3.97c-.02-.22.07-.45.25-.6.12-.1.29-.16.45-.16.06 0 .12 0 .18.02.35.09.67.24.97.44.17.1.28.27.31.46.14.72.51 1.38 1.05 1.85.15.13.23.31.24.51zm8.62-2.51a5.36 5.36 0 0 1-2.26 3.97c-.12.08-.26.13-.4.13-.08 0-.16-.02-.24-.05-.22-.07-.37-.26-.44-.49-.08-.35-.12-.7-.1-1.07 0-.19.09-.37.24-.5.54-.47.91-1.12 1.04-1.85.04-.19.15-.36.31-.46.3-.2.64-.35.97-.44.07 0 .12-.02.19-.02.16 0 .32.06.45.16.17.15.26.37.24.6zm-3.3-6.01c.04.22-.02.43-.16.59-.22.26-.48.49-.77.67a.69.69 0 0 1-.64.04c-.37-.15-.77-.23-1.16-.23s-.8.08-1.17.24c-.08.03-.18.05-.27.05-.13 0-.26-.04-.37-.1-.28-.18-.54-.4-.77-.67a.7.7 0 0 1-.16-.59.74.74 0 0 1 .37-.49c.72-.38 1.55-.58 2.38-.58s1.66.2 2.37.58c.2.09.33.28.37.49z"/>
</svg>
