<svg width="800" height="600" xmlns="http://www.w3.org/2000/svg">
 <g id="Layer_1">
  <title>Layer 1</title>
  <g fill="white">
   <path d="m390.36887,307.26127c-0.16,-0.33 -0.29,-0.66 -0.24,-1.04c0.07,-0.58 0.45,-0.92 0.9,-1.23c0.78,-0.52 1.54,-1.06 2.32,-1.59c0.64,-0.44 1.37,-0.39 1.93,0.14c0.4,0.38 0.8,0.76 1.18,1.16c0.23,0.24 0.49,0.32 0.78,0.19c0.44,-0.2 0.89,-0.4 1.29,-0.67c1.43,-0.96 2.63,-2.16 3.79,-3.42c0.82,-0.89 1.59,-1.82 2.17,-2.89c0.14,-0.26 0.25,-0.55 0.34,-0.83s0.02,-0.52 -0.21,-0.73c-0.38,-0.34 -0.74,-0.71 -1.1,-1.07c-0.66,-0.64 -0.74,-1.32 -0.25,-2.09c0.57,-0.88 1.15,-1.76 1.74,-2.63c0.46,-0.68 1.51,-0.81 2.11,-0.25c0.65,0.61 1.31,1.22 1.91,1.87c0.6,0.64 0.83,1.44 0.85,2.3c0.04,1.23 -0.31,2.38 -0.79,3.49c-0.67,1.54 -1.58,2.93 -2.61,4.24a27.7,27.7 0 0 1 -3.36,3.57c-1.67,1.49 -3.46,2.79 -5.55,3.64c-0.99,0.4 -2,0.67 -3.08,0.61c-0.69,-0.04 -1.33,-0.22 -1.89,-0.63c-0.03,-0.02 -0.07,-0.03 -0.11,-0.05l-2.14,-2.08l0.02,-0.01z"/>
  </g>
  <g fill="white">
   <path d="m402.13176,298.795c-0.28,0 -0.5,-0.22 -0.5,-0.5a3.06,3.06 0 0 0 -3.04,-3.05c-0.28,0 -0.5,-0.22 -0.5,-0.5s0.22,-0.5 0.5,-0.5c2.23,0 4.04,1.81 4.04,4.04c0,0.28 -0.22,0.5 -0.5,0.5l0,0.01z"/>
   <path d="m404.25076,298.685c-0.28,0 -0.5,-0.22 -0.5,-0.5c0,-2.75 -2.239,-4.99 -4.988,-4.99c-0.28,0 -0.5,-0.22 -0.5,-0.5s0.22,-0.5 0.5,-0.5a6,6 0 0 1 5.988,5.99c0,0.28 -0.22,0.5 -0.5,0.5"/>
   <path d="m406.39976,298.435c-0.28,0 -0.5,-0.22 -0.5,-0.5c0,-3.81 -3.1,-6.91 -6.909,-6.91c-0.28,0 -0.5,-0.22 -0.5,-0.5s0.22,-0.5 0.5,-0.5c4.36,0 7.909,3.55 7.909,7.91c0,0.28 -0.22,0.5 -0.5,0.5m-1.989,3.11s-0.01,0.07 -0.02,0.12a0.7,0.7 0 0 1 -0.1,0.16a5.52,5.52 0 0 1 -5.049,1.67l0,6.13c0.01,0.1 -0.03,0.18 -0.1,0.24a0.32,0.32 0 0 1 -0.24,0.11l-2.91,0c-0.19,0 -0.35,-0.16 -0.35,-0.35l0,-7.38c-1.41,-1.03 -2.319,-2.69 -2.509,-4.59c-0.19,-2.07 0.46,-4.08 1.77,-5.38c0.1,-0.1 0.27,-0.12 0.38,-0.06c0.04,0.02 0.08,0.04 0.12,0.07c0.03,0.03 0.06,0.07 0.07,0.12q0.03,0.075 0.03,0.15c0,0.08 -0.02,0.17 -0.08,0.23c-0.51,0.54 0.37,2.89 2.97,5.49c2.399,2.4 4.808,3.5 5.458,2.99c0.03,-0.03 0.07,-0.04 0.12,-0.05s0.11,-0.02 0.16,0c0.02,0 0.04,0 0.05,0.01c0.04,0.02 0.08,0.04 0.12,0.07c0.02,0.01 0.03,0.02 0.04,0.04c0.02,0.02 0.03,0.04 0.04,0.06c0.02,0.04 0.03,0.08 0.03,0.14l0,0.01z"/>
  </g>
  <g fill="white">
   <path d="m407.90499,298.43003c-0.63,-0.55 -1.36,-0.95 -2.15,-1.18c0.06,-0.35 0.08,-0.7 0.08,-1.05c0,-2.08 -1.08,-4.05 -2.8,-5.13a0.7,0.7 0 0 0 -0.37,-0.1c-0.22,0 -0.42,0.09 -0.56,0.28c-0.22,0.29 -0.18,0.69 0.08,0.94c0.73,0.67 1.15,1.62 1.15,2.61c0,1.58 -1.03,2.96 -2.51,3.36c-0.04,0 -0.07,0 -0.09,0.02c-0.24,0.06 -0.5,0.08 -0.75,0.08s-0.49,-0.03 -0.73,-0.08c-0.04,0 -0.08,-0.02 -0.13,-0.03c-1.47,-0.41 -2.49,-1.78 -2.49,-3.35c0,-1 0.41,-1.95 1.14,-2.61a0.706,0.706 0 0 0 -0.48,-1.22c-0.13,0 -0.26,0.04 -0.37,0.11c-1.72,1.09 -2.79,3.05 -2.79,5.12c0,0.36 0.03,0.7 0.08,1.05c-0.79,0.22 -1.52,0.64 -2.15,1.18c-1.55,1.33 -2.32,3.43 -2.02,5.49c0.05,0.35 0.35,0.6 0.69,0.6l0.04,0c0.37,-0.02 0.66,-0.32 0.67,-0.68c0.03,-1 0.47,-1.94 1.21,-2.58c0.6,-0.52 1.36,-0.81 2.14,-0.81c0.99,0 1.93,0.45 2.57,1.23c0.58,0.71 0.86,1.61 0.78,2.55c-0.07,0.93 -0.5,1.76 -1.19,2.35c-0.6,0.52 -1.37,0.82 -2.15,0.82c-0.15,0 -0.31,0 -0.5,-0.04l-0.1,0c-0.32,0 -0.61,0.22 -0.68,0.54c-0.08,0.35 0.11,0.71 0.46,0.82c0.6,0.21 1.24,0.31 1.87,0.31a5.8,5.8 0 0 0 3.77,-1.41c0.13,-0.11 0.25,-0.23 0.37,-0.36c0.11,0.12 0.23,0.23 0.36,0.35a5.8,5.8 0 0 0 5.66,1.1c0.35,-0.11 0.54,-0.48 0.46,-0.82a0.69,0.69 0 0 0 -0.68,-0.54l-0.1,0a3.22,3.22 0 0 1 -2.65,-0.78a3.5,3.5 0 0 1 -1.19,-2.36c-0.08,-0.92 0.2,-1.82 0.78,-2.54c0.65,-0.78 1.58,-1.23 2.57,-1.23c0.78,0 1.55,0.29 2.15,0.81c0.74,0.64 1.17,1.57 1.2,2.58c0,0.37 0.3,0.66 0.66,0.68l0.05,0c0.35,0 0.65,-0.25 0.69,-0.6c0.3,-2.06 -0.47,-4.16 -2.01,-5.49l-0.04,0.01zm-7.92,3.98c-0.82,0 -1.49,-0.67 -1.49,-1.51s0.67,-1.51 1.49,-1.51s1.48,0.68 1.48,1.51s-0.67,1.51 -1.48,1.51"/>
   <path d="m397.40099,304.20003c0,0.37 -0.03,0.72 -0.11,1.06a0.72,0.72 0 0 1 -0.44,0.49c-0.07,0.03 -0.16,0.05 -0.24,0.05c-0.14,0 -0.28,-0.05 -0.4,-0.13a5.36,5.36 0 0 1 -2.26,-3.97c-0.02,-0.22 0.07,-0.45 0.25,-0.6c0.12,-0.1 0.29,-0.16 0.45,-0.16c0.06,0 0.12,0 0.18,0.02c0.35,0.09 0.67,0.24 0.97,0.44c0.17,0.1 0.28,0.27 0.31,0.46c0.14,0.72 0.51,1.38 1.05,1.85c0.15,0.13 0.23,0.31 0.24,0.51l0,-0.02zm8.62,-2.51a5.36,5.36 0 0 1 -2.26,3.97c-0.12,0.08 -0.26,0.13 -0.4,0.13c-0.08,0 -0.16,-0.02 -0.24,-0.05c-0.22,-0.07 -0.37,-0.26 -0.44,-0.49c-0.08,-0.35 -0.12,-0.7 -0.1,-1.07c0,-0.19 0.09,-0.37 0.24,-0.5c0.54,-0.47 0.91,-1.12 1.04,-1.85c0.04,-0.19 0.15,-0.36 0.31,-0.46c0.3,-0.2 0.64,-0.35 0.97,-0.44c0.07,0 0.12,-0.02 0.19,-0.02c0.16,0 0.32,0.06 0.45,0.16c0.17,0.15 0.26,0.37 0.24,0.6l0,0.02zm-3.3,-6.01c0.04,0.22 -0.02,0.43 -0.16,0.59c-0.22,0.26 -0.48,0.49 -0.77,0.67a0.69,0.69 0 0 1 -0.64,0.04c-0.37,-0.15 -0.77,-0.23 -1.16,-0.23s-0.8,0.08 -1.17,0.24c-0.08,0.03 -0.18,0.05 -0.27,0.05c-0.13,0 -0.26,-0.04 -0.37,-0.1c-0.28,-0.18 -0.54,-0.4 -0.77,-0.67a0.7,0.7 0 0 1 -0.16,-0.59a0.74,0.74 0 0 1 0.37,-0.49c0.72,-0.38 1.55,-0.58 2.38,-0.58s1.66,0.2 2.37,0.58c0.2,0.09 0.33,0.28 0.37,0.49l-0.02,0z"/>
  </g>
  <g fill="white">
   <path d="m409.7984,307.33001l-5.88,-11.77l-0.22,-0.47c-0.59,-1.26 -1.26,-2.69 -1.26,-3.99l0,-0.33l1.41,0a0.38,0.38 0 1 0 0,-0.76l-7.68,0a0.38,0.38 0 1 0 0,0.76l1.41,0l0,0.33c0,1.3 -0.67,2.73 -1.26,3.99l-6.11,12.25c-0.27,0.59 -0.22,1.26 0.12,1.81c0.34,0.53 0.9,0.84 1.52,0.84l16.3,0c0.61,0 1.18,-0.31 1.52,-0.84c0.35,-0.54 0.39,-1.22 0.12,-1.82l0.01,0zm-10.78,-1.95c0.52,0.8 0.32,1.88 -0.46,2.42s-1.83,0.32 -2.35,-0.47c-0.52,-0.8 -0.32,-1.88 0.46,-2.42s1.83,-0.32 2.35,0.47m-0.53,-4.35a1.13,1.13 0 0 1 1.59,0.32a1.2,1.2 0 0 1 -0.31,1.63c-0.52,0.36 -1.23,0.22 -1.59,-0.32a1.2,1.2 0 0 1 0.31,-1.63m3.32,2.43c0.64,-0.45 1.52,-0.27 1.96,0.39s0.26,1.57 -0.38,2.01c-0.64,0.45 -1.52,0.27 -1.96,-0.39c-0.43,-0.66 -0.26,-1.57 0.38,-2.01m-5.03,-7.58l0.22,-0.47c0.62,-1.33 1.33,-2.84 1.33,-4.31l0,-0.33l3.36,0l0,0.33c0,1.47 0.71,2.98 1.33,4.31l2.07,4.16l-10.15,0l1.84,-3.68l0,-0.01z"/>
  </g>
 </g>

</svg>