<svg id="SvgjsSvg1019" width="288" height="288" xmlns="http://www.w3.org/2000/svg" version="1.1" xmlns:xlink="http://www.w3.org/1999/xlink" xmlns:svgjs="http://svgjs.com/svgjs"><defs id="SvgjsDefs1020"></defs><g id="SvgjsG1021"><svg xmlns="http://www.w3.org/2000/svg" viewBox="0 0 24 24" width="288" height="288"><path d="m21.763 19.32-5.88-11.77-.22-.47c-.59-1.26-1.26-2.69-1.26-3.99v-.33h1.41a.38.38 0 1 0 0-.76h-7.68a.38.38 0 1 0 0 .76h1.41v.33c0 1.3-.67 2.73-1.26 3.99l-6.11 12.25c-.27.59-.22 1.26.12 1.81.34.53.9.84 1.52.84h16.3c.61 0 1.18-.31 1.52-.84.35-.54.39-1.22.12-1.82zm-10.78-1.95c.52.8.32 1.88-.46 2.42s-1.83.32-2.35-.47c-.52-.8-.32-1.88.46-2.42s1.83-.32 2.35.47m-.53-4.35a1.13 1.13 0 0 1 1.59.32 1.2 1.2 0 0 1-.31 1.63c-.52.36-1.23.22-1.59-.32a1.2 1.2 0 0 1 .31-1.63m3.32 2.43c.64-.45 1.52-.27 1.96.39s.26 1.57-.38 2.01c-.64.45-1.52.27-1.96-.39-.43-.66-.26-1.57.38-2.01m-5.03-7.58.22-.47c.62-1.33 1.33-2.84 1.33-4.31v-.33h3.36v.33c0 1.47.71 2.98 1.33 4.31l2.07 4.16H6.903l1.84-3.68z" fill="#ffffff" class="svgShape color000000-0 selectable"></path></svg></g></svg>