<svg id="SvgjsSvg1024" width="288" height="288" xmlns="http://www.w3.org/2000/svg" version="1.1" xmlns:xlink="http://www.w3.org/1999/xlink" xmlns:svgjs="http://svgjs.com/svgjs"><defs id="SvgjsDefs1025"></defs><g id="SvgjsG1026"><svg xmlns="http://www.w3.org/2000/svg" viewBox="0 0 24 24" width="288" height="288"><path d="M18.41 2h-4.298a.703.703 0 0 0-.702.701v4.3c0 .38.32.7.702.7h1.052l1.102 1.854 1.102-1.853h1.052A.71.71 0 0 0 19.122 7V2.701c0-.39-.32-.701-.702-.701zm-.51 3.868c.17.17.17.45 0 .611a.4.4 0 0 1-.301.13c-.12 0-.23-.03-.31-.13l-1.033-1.032-1.032 1.032c-.08.09-.2.13-.31.13a.38.38 0 0 1-.301-.13.43.43 0 0 1 0-.611l1.032-1.032-1.032-1.032a.43.43 0 0 1 0-.612.43.43 0 0 1 .61 0l1.033 1.033 1.032-1.033a.43.43 0 0 1 .611 0 .43.43 0 0 1 0 .612l-1.032 1.032zm.15 6.163c0 .992-.791 1.794-1.794 1.794a1.78 1.78 0 0 1-1.793-1.794c0-1.002.812-1.794 1.793-1.794.982 0 1.794.812 1.794 1.794m1.953 6.232v2.676A7.4 7.4 0 0 1 16.145 22a7.4 7.4 0 0 1-3.647-.952v-2.786a3.748 3.748 0 0 1 7.495 0zM9.903 2h-4.3c-.38 0-.7.31-.7.711v4.3c0 .38.32.7.7.7h1.053l1.102 1.844L8.86 7.712h1.043c.39 0 .701-.321.701-.702V2.711A.7.7 0 0 0 9.903 2M7.758 7.25c-.23 0-.42-.18-.42-.41s.19-.421.42-.421.411.19.411.42c0 .231-.18.412-.41.412m.411-1.753a.41.41 0 0 1-.4.411h-.02a.413.413 0 0 1-.412-.41V3.221c0-.23.18-.41.411-.41h.02c.22 0 .401.18.401.41zm1.382 6.533c0 .992-.791 1.794-1.793 1.794a1.78 1.78 0 0 1-1.794-1.794c0-1.002.812-1.794 1.793-1.794.983 0 1.794.812 1.794 1.794m1.953 6.232v2.676A7.4 7.4 0 0 1 7.647 22 7.4 7.4 0 0 1 4 21.049v-2.786a3.748 3.748 0 0 1 7.495 0z" fill="#ffffff" class="svgShape color000000-0 selectable"></path></svg></g></svg>