<svg id="SvgjsSvg1029" width="288" height="288" xmlns="http://www.w3.org/2000/svg" version="1.1" xmlns:xlink="http://www.w3.org/1999/xlink" xmlns:svgjs="http://svgjs.com/svgjs"><defs id="SvgjsDefs1030"></defs><g id="SvgjsG1031"><svg xmlns="http://www.w3.org/2000/svg" viewBox="0 0 24 24" width="288" height="288"><polygon points="12.98 6.32 9.67 6.32 9.67 10.56 11.52 11.07 11.1 9.88 13.52 10.74 12.98 6.32" fill="#ffffff" class="svgShape color000000-0 selectable"></polygon><polygon points="11.94 11.07 12.32 12.17 9.67 11.44 9.67 20.86 14.99 20.88 13.61 11.66 11.94 11.07" fill="#ffffff" class="svgShape color000000-1 selectable"></polygon><path d="M3.12 10.45c.39 0 .77-.15 1.07-.4.29.26.67.4 1.07.4s.77-.15 1.07-.4c.29.26.68.4 1.07.4.46 0 .91-.24 1.15-.49h0c.26-.26.27-.41.2-.58-.04-.09-.13-.14-.24-.16-.13 0-.26.04-.32.14-.18.27-.47.43-.79.43s-.62-.16-.79-.43c-.06-.09-.16-.14-.27-.14h0c-.11 0-.21.05-.27.14-.18.27-.47.43-.79.43s-.62-.16-.79-.43c-.06-.09-.16-.14-.27-.14h0c-.11 0-.21.05-.27.14-.18.27-.47.43-.79.43s-.62-.16-.79-.43c-.1-.15-.3-.19-.46-.09-.07.05-.12.12-.14.21s0 .17.05.25c.3.45.8.72 1.34.72zM8.5 6.69c-.13 0-.26.04-.32.13-.18.27-.47.43-.79.43s-.62-.16-.79-.42c-.06-.09-.16-.14-.27-.14s-.21.05-.27.14c-.18.27-.47.43-.79.43s-.62-.16-.79-.42c-.06-.09-.16-.14-.27-.14h0c-.11 0-.21.05-.27.14-.18.27-.47.43-.79.43s-.62-.16-.79-.42c-.1-.15-.3-.19-.46-.09-.15.1-.19.31-.09.46.3.45.8.72 1.34.72.39 0 .77-.15 1.07-.4.29.26.67.4 1.07.4s.77-.15 1.07-.4c.29.26.67.4 1.07.4.46 0 .91-.24 1.15-.49.26-.26.27-.41.2-.58-.04-.09-.13-.14-.24-.16zM11.68 5.36c.39 0 .77-.15 1.07-.4.29.26.67.4 1.07.4.46 0 .91-.24 1.15-.49.26-.26.27-.41.2-.57-.04-.09-.12-.15-.24-.16-.13-.01-.26.04-.32.13-.18.27-.47.43-.79.43s-.62-.16-.79-.42c-.06-.09-.16-.14-.27-.14h0c-.11 0-.21.05-.27.14-.18.27-.47.43-.79.43s-.62-.16-.79-.42c-.06-.09-.16-.14-.27-.14h0c-.11 0-.21.05-.27.14-.18.27-.47.43-.79.43s-.62-.16-.79-.42c-.02-.02-.04-.03-.06-.04-.02-.03-.05-.05-.09-.06-.03-.01-.05-.03-.09-.03 0 0 0 0 0 0-.07 0-.14.01-.2.04 0 0 0 0 0 0 0 0 0 0 0 0-.04.02-.08.05-.11.08-.18.27-.47.43-.79.43s-.62-.16-.79-.42c-.06-.09-.16-.14-.27-.14s-.21.05-.27.14c-.18.27-.47.43-.79.43s-.62-.16-.79-.42c-.06-.09-.16-.14-.27-.14h0c-.11 0-.21.05-.27.14-.18.27-.47.43-.79.43s-.62-.16-.79-.42c-.1-.15-.3-.19-.46-.09-.07.05-.12.12-.14.21s0 .17.05.25c.3.45.8.72 1.34.72.39 0 .77-.15 1.07-.4.29.26.67.4 1.07.4s.77-.15 1.07-.4c.29.26.67.4 1.07.4.42 0 .82-.2 1.07-.42.29.27.68.42 1.08.42s.78-.15 1.07-.4c.29.26.67.4 1.07.4zM3.12 13c.39 0 .77-.15 1.07-.4.29.26.67.4 1.07.4s.77-.15 1.07-.4c.29.26.67.4 1.07.4s.86-.2 1.15-.49c.26-.26.27-.41.2-.58-.04-.09-.13-.14-.24-.16-.13 0-.26.04-.32.14-.18.27-.47.43-.79.43s-.62-.16-.79-.43c-.06-.09-.16-.14-.27-.14h0c-.11 0-.21.05-.27.14-.18.27-.48.43-.79.43s-.61-.16-.79-.43c-.06-.09-.16-.14-.27-.14h0c-.11 0-.21.05-.27.14-.18.27-.48.43-.79.43s-.61-.16-.79-.42c-.1-.15-.3-.19-.46-.09-.07.05-.12.12-.14.21s0 .17.05.25c.3.45.8.72 1.34.72zM8.5 14.32c-.13 0-.26.04-.32.13-.18.27-.47.43-.79.43s-.62-.16-.79-.42c-.06-.09-.16-.14-.27-.14s-.21.05-.27.14c-.18.27-.47.43-.79.43s-.62-.16-.79-.42c-.06-.09-.16-.14-.27-.14h0c-.11 0-.21.05-.27.14-.18.27-.47.43-.79.43s-.62-.16-.79-.42c-.1-.15-.3-.19-.46-.09-.07.05-.12.12-.14.21s0 .17.05.25c.3.45.8.72 1.34.72.39 0 .77-.15 1.07-.4.29.26.67.4 1.07.4s.77-.15 1.07-.4c.29.26.67.4 1.07.4.46 0 .91-.24 1.15-.49.26-.26.27-.41.2-.58-.04-.09-.13-.14-.24-.16zM8.5 16.87c-.13 0-.26.04-.32.13-.18.27-.47.43-.79.43s-.62-.16-.79-.43c-.06-.09-.16-.14-.27-.14h0c-.11 0-.21.05-.27.14-.18.27-.47.43-.79.43s-.62-.16-.79-.43c-.06-.09-.16-.14-.27-.14h0c-.11 0-.21.05-.27.14-.18.27-.47.43-.79.43s-.62-.16-.79-.43c-.1-.15-.3-.19-.46-.09-.15.1-.19.31-.09.46.3.45.8.72 1.34.72.39 0 .77-.15 1.07-.4.29.26.67.4 1.07.4s.77-.15 1.07-.4c.29.26.67.4 1.07.4.46 0 .91-.24 1.15-.49.26-.26.27-.41.2-.58-.04-.09-.13-.14-.24-.16zM8.5 19.41c-.13 0-.26.04-.32.14-.18.27-.47.43-.79.43s-.62-.16-.79-.43c-.06-.09-.16-.14-.27-.14h0c-.11 0-.21.05-.27.14-.18.27-.47.43-.79.43s-.62-.16-.79-.43c-.06-.09-.16-.14-.27-.14h0c-.11 0-.21.05-.27.14-.18.27-.47.43-.79.43s-.62-.16-.79-.43c-.1-.15-.3-.19-.46-.09-.07.05-.12.12-.14.21s0 .17.05.25c.3.45.8.72 1.34.72.39 0 .77-.15 1.07-.4.29.26.67.4 1.07.4s.77-.15 1.07-.4c.29.26.67.4 1.07.4.46 0 .91-.24 1.15-.49.26-.26.27-.41.2-.58-.04-.09-.13-.14-.24-.16zM17.55 15.14c.29.26.67.4 1.07.4s.77-.15 1.07-.4c.29.26.67.4 1.07.4.46 0 .91-.24 1.15-.49.26-.26.27-.41.2-.58-.04-.09-.13-.14-.24-.16-.13-.01-.25.04-.32.13-.18.27-.47.43-.79.43s-.62-.16-.79-.42c-.06-.09-.16-.14-.27-.14h0c-.11 0-.21.05-.27.14-.18.27-.47.43-.79.43s-.62-.16-.79-.42c-.06-.09-.16-.14-.27-.14h0c-.11 0-.21.05-.27.14-.18.27-.47.43-.79.43s-.62-.16-.79-.42c-.1-.15-.3-.19-.46-.09-.07.05-.12.12-.14.21-.02.09 0 .17.05.25.3.45.8.72 1.34.72.39 0 .77-.15 1.07-.4zM16.9 18.08c.39 0 .77-.15 1.07-.4.29.26.67.4 1.07.4s.77-.15 1.07-.4c.29.26.67.4 1.07.4.46 0 .91-.24 1.15-.49.26-.26.27-.41.2-.58-.04-.09-.13-.14-.24-.15-.13 0-.25.04-.32.13-.18.27-.47.43-.79.43s-.62-.16-.79-.43c-.06-.09-.16-.14-.27-.14h0c-.11 0-.21.05-.27.14-.18.27-.47.43-.79.43s-.62-.16-.79-.43c-.06-.09-.16-.14-.27-.14h0c-.11 0-.21.05-.27.14-.18.27-.47.43-.79.43s-.62-.16-.79-.43c-.1-.15-.31-.19-.46-.09-.07.05-.12.12-.14.21s0 .17.05.25c.3.45.8.72 1.34.72zM22.76 19.57c-.04-.09-.13-.15-.24-.16-.14-.02-.26.04-.32.13-.18.27-.48.43-.79.43s-.61-.16-.79-.43c-.06-.09-.16-.14-.27-.14h0c-.11 0-.21.05-.27.14-.18.27-.48.43-.8.43s-.61-.16-.79-.43c-.06-.09-.16-.14-.27-.14h0c-.11 0-.21.05-.27.14-.18.27-.48.43-.8.43s-.62-.16-.79-.43c-.1-.15-.3-.19-.45-.09-.07.05-.12.12-.14.21-.02.09 0 .17.05.25.3.45.8.72 1.34.72.39 0 .78-.15 1.07-.4.29.26.67.4 1.07.4s.78-.15 1.07-.4c.29.26.67.4 1.07.4.46 0 .91-.24 1.15-.49.26-.26.27-.41.2-.57z" fill="#ffffff" class="svgShape color000000-2 selectable"></path></svg></g></svg>