<svg id="SvgjsSvg1036" width="288" height="288" xmlns="http://www.w3.org/2000/svg" version="1.1" xmlns:xlink="http://www.w3.org/1999/xlink" xmlns:svgjs="http://svgjs.com/svgjs"><defs id="SvgjsDefs1037"></defs><g id="SvgjsG1038"><svg xmlns="http://www.w3.org/2000/svg" viewBox="0 0 24 24" width="288" height="288"><path d="M12,15.089353h.004142c-.285815,0-.520176-.226602-.529804-.512246l-.756228-7.886657c0-1.751895,2.56378-1.751895,2.56378,0l-.752087,7.886657c-.009627.285644-.243977.512246-.529803.512246ZM12.95591,17.671704c0,.525647-.426121.951768-.951768.951768s-.951768-.426121-.951768-.951768.426121-.951768.951768-.951768.951768.426121.951768.951768Z" fill="#ffffff" class="svgShape color000000-0 selectable"></path><path d="M20.870092,6.435761c-.000964,2.46221-.240266,4.605614-.902717,6.685406-.909334,2.854897-2.47483,5.282014-4.774799,7.219328-.906586.763639-1.89718,1.400049-2.951506,1.941177-.175794.090225-.312209.086942-.485696.000392-2.178928-1.087062-3.986309-2.611158-5.424513-4.576172-1.473767-2.013608-2.392152-4.260116-2.837334-6.7086-.328957-1.809261-.408092-3.633455-.34233-5.467043.007488-.208806.014814-.417677.026937-.626244.014529-.249891.041426-.274035.300227-.270016.661853.01028,1.321076-.019596,1.976643-.116685,1.344774-.199159,2.593604-.680173,3.798986-1.28958.868051-.438861,1.691472-.953999,2.503076-1.486971.193849-.1273.324715-.112706.509158.010595,1.127704.75388,2.289082,1.448036,3.545107,1.974232,1.46687.614532,2.985034.956756,4.582072.908146.067729-.002059.135626.001104.203326-.001376.146916-.005382.211164.060554.220823.210842.040233.626074.050115,1.252763.05254,1.59257ZM4.102958,7.25944c-.006745,1.137157.077628,2.267846.272384,3.389437.421183,2.425588,1.305342,4.655294,2.796043,6.629741,1.257872,1.666061,2.796741,3.003078,4.644233,3.982191.130569.069194.231258.067027.357897-.001356.562324-.303653,1.110082-.631359,1.623669-1.011113,3.445351-2.54753,5.303243-6.016174,5.899456-10.209264.202574-1.424673.23318-2.858372.174529-4.294986-.005076-.124322-.033037-.175465-.16875-.179416-1.763399-.05138-3.41488-.539737-4.99402-1.299097-.860918-.413988-1.693698-.880241-2.485116-1.415707-.167826-.113549-.288004-.110801-.449132.000747-.250326.173295-.515497.325471-.776921.482359-2.089213,1.2538-4.287646,2.178401-6.77159,2.235309-.115436.002647-.123874.0605-.123561.149138.001802.514002.000879,1.028011.000879,1.542016Z" fill="#ffffff" class="svgShape color000000-1 selectable"></path></svg></g></svg>