<svg width="800" height="600" xmlns="http://www.w3.org/2000/svg">
 <g id="Layer_1">
  <title>Layer 1</title>
  <g fill="white">
   <path d="m390.36887,307.26127c-0.16,-0.33 -0.29,-0.66 -0.24,-1.04c0.07,-0.58 0.45,-0.92 0.9,-1.23c0.78,-0.52 1.54,-1.06 2.32,-1.59c0.64,-0.44 1.37,-0.39 1.93,0.14c0.4,0.38 0.8,0.76 1.18,1.16c0.23,0.24 0.49,0.32 0.78,0.19c0.44,-0.2 0.89,-0.4 1.29,-0.67c1.43,-0.96 2.63,-2.16 3.79,-3.42c0.82,-0.89 1.59,-1.82 2.17,-2.89c0.14,-0.26 0.25,-0.55 0.34,-0.83s0.02,-0.52 -0.21,-0.73c-0.38,-0.34 -0.74,-0.71 -1.1,-1.07c-0.66,-0.64 -0.74,-1.32 -0.25,-2.09c0.57,-0.88 1.15,-1.76 1.74,-2.63c0.46,-0.68 1.51,-0.81 2.11,-0.25c0.65,0.61 1.31,1.22 1.91,1.87c0.6,0.64 0.83,1.44 0.85,2.3c0.04,1.23 -0.31,2.38 -0.79,3.49c-0.67,1.54 -1.58,2.93 -2.61,4.24a27.7,27.7 0 0 1 -3.36,3.57c-1.67,1.49 -3.46,2.79 -5.55,3.64c-0.99,0.4 -2,0.67 -3.08,0.61c-0.69,-0.04 -1.33,-0.22 -1.89,-0.63c-0.03,-0.02 -0.07,-0.03 -0.11,-0.05l-2.14,-2.08l0.02,-0.01z"/>
  </g>
  <g fill="white">
   <path d="m402.13176,298.795c-0.28,0 -0.5,-0.22 -0.5,-0.5a3.06,3.06 0 0 0 -3.04,-3.05c-0.28,0 -0.5,-0.22 -0.5,-0.5s0.22,-0.5 0.5,-0.5c2.23,0 4.04,1.81 4.04,4.04c0,0.28 -0.22,0.5 -0.5,0.5l0,0.01z"/>
   <path d="m404.25076,298.685c-0.28,0 -0.5,-0.22 -0.5,-0.5c0,-2.75 -2.239,-4.99 -4.988,-4.99c-0.28,0 -0.5,-0.22 -0.5,-0.5s0.22,-0.5 0.5,-0.5a6,6 0 0 1 5.988,5.99c0,0.28 -0.22,0.5 -0.5,0.5"/>
   <path d="m406.39976,298.435c-0.28,0 -0.5,-0.22 -0.5,-0.5c0,-3.81 -3.1,-6.91 -6.909,-6.91c-0.28,0 -0.5,-0.22 -0.5,-0.5s0.22,-0.5 0.5,-0.5c4.36,0 7.909,3.55 7.909,7.91c0,0.28 -0.22,0.5 -0.5,0.5m-1.989,3.11s-0.01,0.07 -0.02,0.12a0.7,0.7 0 0 1 -0.1,0.16a5.52,5.52 0 0 1 -5.049,1.67l0,6.13c0.01,0.1 -0.03,0.18 -0.1,0.24a0.32,0.32 0 0 1 -0.24,0.11l-2.91,0c-0.19,0 -0.35,-0.16 -0.35,-0.35l0,-7.38c-1.41,-1.03 -2.319,-2.69 -2.509,-4.59c-0.19,-2.07 0.46,-4.08 1.77,-5.38c0.1,-0.1 0.27,-0.12 0.38,-0.06c0.04,0.02 0.08,0.04 0.12,0.07c0.03,0.03 0.06,0.07 0.07,0.12q0.03,0.075 0.03,0.15c0,0.08 -0.02,0.17 -0.08,0.23c-0.51,0.54 0.37,2.89 2.97,5.49c2.399,2.4 4.808,3.5 5.458,2.99c0.03,-0.03 0.07,-0.04 0.12,-0.05s0.11,-0.02 0.16,0c0.02,0 0.04,0 0.05,0.01c0.04,0.02 0.08,0.04 0.12,0.07c0.02,0.01 0.03,0.02 0.04,0.04c0.02,0.02 0.03,0.04 0.04,0.06c0.02,0.04 0.03,0.08 0.03,0.14l0,0.01z"/>
  </g>
  <g fill="white">
   <path d="m407.90499,298.43003c-0.63,-0.55 -1.36,-0.95 -2.15,-1.18c0.06,-0.35 0.08,-0.7 0.08,-1.05c0,-2.08 -1.08,-4.05 -2.8,-5.13a0.7,0.7 0 0 0 -0.37,-0.1c-0.22,0 -0.42,0.09 -0.56,0.28c-0.22,0.29 -0.18,0.69 0.08,0.94c0.73,0.67 1.15,1.62 1.15,2.61c0,1.58 -1.03,2.96 -2.51,3.36c-0.04,0 -0.07,0 -0.09,0.02c-0.24,0.06 -0.5,0.08 -0.75,0.08s-0.49,-0.03 -0.73,-0.08c-0.04,0 -0.08,-0.02 -0.13,-0.03c-1.47,-0.41 -2.49,-1.78 -2.49,-3.35c0,-1 0.41,-1.95 1.14,-2.61a0.706,0.706 0 0 0 -0.48,-1.22c-0.13,0 -0.26,0.04 -0.37,0.11c-1.72,1.09 -2.79,3.05 -2.79,5.12c0,0.36 0.03,0.7 0.08,1.05c-0.79,0.22 -1.52,0.64 -2.15,1.18c-1.55,1.33 -2.32,3.43 -2.02,5.49c0.05,0.35 0.35,0.6 0.69,0.6l0.04,0c0.37,-0.02 0.66,-0.32 0.67,-0.68c0.03,-1 0.47,-1.94 1.21,-2.58c0.6,-0.52 1.36,-0.81 2.14,-0.81c0.99,0 1.93,0.45 2.57,1.23c0.58,0.71 0.86,1.61 0.78,2.55c-0.07,0.93 -0.5,1.76 -1.19,2.35c-0.6,0.52 -1.37,0.82 -2.15,0.82c-0.15,0 -0.31,0 -0.5,-0.04l-0.1,0c-0.32,0 -0.61,0.22 -0.68,0.54c-0.08,0.35 0.11,0.71 0.46,0.82c0.6,0.21 1.24,0.31 1.87,0.31a5.8,5.8 0 0 0 3.77,-1.41c0.13,-0.11 0.25,-0.23 0.37,-0.36c0.11,0.12 0.23,0.23 0.36,0.35a5.8,5.8 0 0 0 5.66,1.1c0.35,-0.11 0.54,-0.48 0.46,-0.82a0.69,0.69 0 0 0 -0.68,-0.54l-0.1,0a3.22,3.22 0 0 1 -2.65,-0.78a3.5,3.5 0 0 1 -1.19,-2.36c-0.08,-0.92 0.2,-1.82 0.78,-2.54c0.65,-0.78 1.58,-1.23 2.57,-1.23c0.78,0 1.55,0.29 2.15,0.81c0.74,0.64 1.17,1.57 1.2,2.58c0,0.37 0.3,0.66 0.66,0.68l0.05,0c0.35,0 0.65,-0.25 0.69,-0.6c0.3,-2.06 -0.47,-4.16 -2.01,-5.49l-0.04,0.01zm-7.92,3.98c-0.82,0 -1.49,-0.67 -1.49,-1.51s0.67,-1.51 1.49,-1.51s1.48,0.68 1.48,1.51s-0.67,1.51 -1.48,1.51"/>
   <path d="m397.40099,304.20003c0,0.37 -0.03,0.72 -0.11,1.06a0.72,0.72 0 0 1 -0.44,0.49c-0.07,0.03 -0.16,0.05 -0.24,0.05c-0.14,0 -0.28,-0.05 -0.4,-0.13a5.36,5.36 0 0 1 -2.26,-3.97c-0.02,-0.22 0.07,-0.45 0.25,-0.6c0.12,-0.1 0.29,-0.16 0.45,-0.16c0.06,0 0.12,0 0.18,0.02c0.35,0.09 0.67,0.24 0.97,0.44c0.17,0.1 0.28,0.27 0.31,0.46c0.14,0.72 0.51,1.38 1.05,1.85c0.15,0.13 0.23,0.31 0.24,0.51l0,-0.02zm8.62,-2.51a5.36,5.36 0 0 1 -2.26,3.97c-0.12,0.08 -0.26,0.13 -0.4,0.13c-0.08,0 -0.16,-0.02 -0.24,-0.05c-0.22,-0.07 -0.37,-0.26 -0.44,-0.49c-0.08,-0.35 -0.12,-0.7 -0.1,-1.07c0,-0.19 0.09,-0.37 0.24,-0.5c0.54,-0.47 0.91,-1.12 1.04,-1.85c0.04,-0.19 0.15,-0.36 0.31,-0.46c0.3,-0.2 0.64,-0.35 0.97,-0.44c0.07,0 0.12,-0.02 0.19,-0.02c0.16,0 0.32,0.06 0.45,0.16c0.17,0.15 0.26,0.37 0.24,0.6l0,0.02zm-3.3,-6.01c0.04,0.22 -0.02,0.43 -0.16,0.59c-0.22,0.26 -0.48,0.49 -0.77,0.67a0.69,0.69 0 0 1 -0.64,0.04c-0.37,-0.15 -0.77,-0.23 -1.16,-0.23s-0.8,0.08 -1.17,0.24c-0.08,0.03 -0.18,0.05 -0.27,0.05c-0.13,0 -0.26,-0.04 -0.37,-0.1c-0.28,-0.18 -0.54,-0.4 -0.77,-0.67a0.7,0.7 0 0 1 -0.16,-0.59a0.74,0.74 0 0 1 0.37,-0.49c0.72,-0.38 1.55,-0.58 2.38,-0.58s1.66,0.2 2.37,0.58c0.2,0.09 0.33,0.28 0.37,0.49l-0.02,0z"/>
  </g>
  <g fill="white">
   <path d="m409.7984,307.33001l-5.88,-11.77l-0.22,-0.47c-0.59,-1.26 -1.26,-2.69 -1.26,-3.99l0,-0.33l1.41,0a0.38,0.38 0 1 0 0,-0.76l-7.68,0a0.38,0.38 0 1 0 0,0.76l1.41,0l0,0.33c0,1.3 -0.67,2.73 -1.26,3.99l-6.11,12.25c-0.27,0.59 -0.22,1.26 0.12,1.81c0.34,0.53 0.9,0.84 1.52,0.84l16.3,0c0.61,0 1.18,-0.31 1.52,-0.84c0.35,-0.54 0.39,-1.22 0.12,-1.82l0.01,0zm-10.78,-1.95c0.52,0.8 0.32,1.88 -0.46,2.42s-1.83,0.32 -2.35,-0.47c-0.52,-0.8 -0.32,-1.88 0.46,-2.42s1.83,-0.32 2.35,0.47m-0.53,-4.35a1.13,1.13 0 0 1 1.59,0.32a1.2,1.2 0 0 1 -0.31,1.63c-0.52,0.36 -1.23,0.22 -1.59,-0.32a1.2,1.2 0 0 1 0.31,-1.63m3.32,2.43c0.64,-0.45 1.52,-0.27 1.96,0.39s0.26,1.57 -0.38,2.01c-0.64,0.45 -1.52,0.27 -1.96,-0.39c-0.43,-0.66 -0.26,-1.57 0.38,-2.01m-5.03,-7.58l0.22,-0.47c0.62,-1.33 1.33,-2.84 1.33,-4.31l0,-0.33l3.36,0l0,0.33c0,1.47 0.71,2.98 1.33,4.31l2.07,4.16l-10.15,0l1.84,-3.68l0,-0.01z"/>
  </g>
  <g fill="white">
   <path d="m406.4085,289.99994l-4.298,0a0.703,0.703 0 0 0 -0.702,0.701l0,4.3c0,0.38 0.32,0.7 0.702,0.7l1.052,0l1.102,1.854l1.102,-1.853l1.052,0a0.71,0.71 0 0 0 0.702,-0.702l0,-4.299c0,-0.39 -0.32,-0.701 -0.702,-0.701l-0.01,0zm-0.51,3.868c0.17,0.17 0.17,0.45 0,0.611a0.4,0.4 0 0 1 -0.301,0.13c-0.12,0 -0.23,-0.03 -0.31,-0.13l-1.033,-1.032l-1.032,1.032c-0.08,0.09 -0.2,0.13 -0.31,0.13a0.38,0.38 0 0 1 -0.301,-0.13a0.43,0.43 0 0 1 0,-0.611l1.032,-1.032l-1.032,-1.032a0.43,0.43 0 0 1 0,-0.612a0.43,0.43 0 0 1 0.61,0l1.033,1.033l1.032,-1.033a0.43,0.43 0 0 1 0.611,0a0.43,0.43 0 0 1 0,0.612l-1.032,1.032l1.033,1.032zm0.15,6.163c0,0.992 -0.791,1.794 -1.794,1.794a1.78,1.78 0 0 1 -1.793,-1.794c0,-1.002 0.812,-1.794 1.793,-1.794c0.982,0 1.794,0.812 1.794,1.794m1.953,6.232l0,2.676a7.4,7.4 0 0 1 -3.858,1.061a7.4,7.4 0 0 1 -3.647,-0.952l0,-2.786a3.748,3.748 0 0 1 7.495,0l0.01,0.001zm-10.1,-16.263l-4.3,0c-0.38,0 -0.7,0.31 -0.7,0.711l0,4.3c0,0.38 0.32,0.7 0.7,0.7l1.053,0l1.102,1.844l1.102,-1.843l1.043,0c0.39,0 0.701,-0.321 0.701,-0.702l0,-4.299a0.7,0.7 0 0 0 -0.701,-0.711m-2.145,5.25c-0.23,0 -0.42,-0.18 -0.42,-0.41s0.19,-0.421 0.42,-0.421s0.411,0.19 0.411,0.42c0,0.231 -0.18,0.412 -0.41,0.412m0.411,-1.753a0.41,0.41 0 0 1 -0.4,0.411l-0.02,0a0.413,0.413 0 0 1 -0.412,-0.41l0,-2.278c0,-0.23 0.18,-0.41 0.411,-0.41l0.02,0c0.22,0 0.401,0.18 0.401,0.41l0,2.277zm1.382,6.533c0,0.992 -0.791,1.794 -1.793,1.794a1.78,1.78 0 0 1 -1.794,-1.794c0,-1.002 0.812,-1.794 1.793,-1.794c0.983,0 1.794,0.812 1.794,1.794m1.953,6.232l0,2.676a7.4,7.4 0 0 1 -3.858,1.061a7.4,7.4 0 0 1 -3.647,-0.951l0,-2.786a3.748,3.748 0 0 1 7.495,0l0.01,0z"/>
  </g>
  <g fill="white">
   <polygon points="400.6902961730957,293.8106384277344 397.3802967071533,293.8106384277344 397.3802967071533,298.0506286621094 399.23029708862305,298.5606384277344 398.8102970123291,297.3706359863281 401.23029708862305,298.2306213378906 400.6902961730957,293.8106384277344 "/>
   <polygon points="399.650297164917,298.5606384277344 400.0302963256836,299.66064453125 397.3802967071533,298.9306335449219 397.3802967071533,308.35064697265625 402.70029640197754,308.3706359863281 401.3202962875366,299.150634765625 399.650297164917,298.5606384277344 "/>
   <path d="m390.8303,297.94063c0.39,0 0.77,-0.15 1.07,-0.4c0.29,0.26 0.67,0.4 1.07,0.4s0.77,-0.15 1.07,-0.4c0.29,0.26 0.68,0.4 1.07,0.4c0.46,0 0.91,-0.24 1.15,-0.49l0,0c0.26,-0.26 0.27,-0.41 0.2,-0.58c-0.04,-0.09 -0.13,-0.14 -0.24,-0.16c-0.13,0 -0.26,0.04 -0.32,0.14c-0.18,0.27 -0.47,0.43 -0.79,0.43s-0.62,-0.16 -0.79,-0.43c-0.06,-0.09 -0.16,-0.14 -0.27,-0.14l0,0c-0.11,0 -0.21,0.05 -0.27,0.14c-0.18,0.27 -0.47,0.43 -0.79,0.43s-0.62,-0.16 -0.79,-0.43c-0.06,-0.09 -0.16,-0.14 -0.27,-0.14l0,0c-0.11,0 -0.21,0.05 -0.27,0.14c-0.18,0.27 -0.47,0.43 -0.79,0.43s-0.62,-0.16 -0.79,-0.43c-0.1,-0.15 -0.3,-0.19 -0.46,-0.09c-0.07,0.05 -0.12,0.12 -0.14,0.21s0,0.17 0.05,0.25c0.3,0.45 0.8,0.72 1.34,0.72l-0.04,0z"/>
   <path d="m396.2103,294.18063c-0.13,0 -0.26,0.04 -0.32,0.13c-0.18,0.27 -0.47,0.43 -0.79,0.43s-0.62,-0.16 -0.79,-0.42c-0.06,-0.09 -0.16,-0.14 -0.27,-0.14s-0.21,0.05 -0.27,0.14c-0.18,0.27 -0.47,0.43 -0.79,0.43s-0.62,-0.16 -0.79,-0.42c-0.06,-0.09 -0.16,-0.14 -0.27,-0.14l0,0c-0.11,0 -0.21,0.05 -0.27,0.14c-0.18,0.27 -0.47,0.43 -0.79,0.43s-0.62,-0.16 -0.79,-0.42c-0.1,-0.15 -0.3,-0.19 -0.46,-0.09c-0.15,0.1 -0.19,0.31 -0.09,0.46c0.3,0.45 0.8,0.72 1.34,0.72c0.39,0 0.77,-0.15 1.07,-0.4c0.29,0.26 0.67,0.4 1.07,0.4s0.77,-0.15 1.07,-0.4c0.29,0.26 0.67,0.4 1.07,0.4c0.46,0 0.91,-0.24 1.15,-0.49c0.26,-0.26 0.27,-0.41 0.2,-0.58c-0.04,-0.09 -0.13,-0.14 -0.24,-0.16l-0.04,-0.02z"/>
   <path d="m399.3903,292.85063c0.39,0 0.77,-0.15 1.07,-0.4c0.29,0.26 0.67,0.4 1.07,0.4c0.46,0 0.91,-0.24 1.15,-0.49c0.26,-0.26 0.27,-0.41 0.2,-0.57c-0.04,-0.09 -0.12,-0.15 -0.24,-0.16c-0.13,-0.01 -0.26,0.04 -0.32,0.13c-0.18,0.27 -0.47,0.43 -0.79,0.43s-0.62,-0.16 -0.79,-0.42c-0.06,-0.09 -0.16,-0.14 -0.27,-0.14l0,0c-0.11,0 -0.21,0.05 -0.27,0.14c-0.18,0.27 -0.47,0.43 -0.79,0.43s-0.62,-0.16 -0.79,-0.42c-0.06,-0.09 -0.16,-0.14 -0.27,-0.14l0,0c-0.11,0 -0.21,0.05 -0.27,0.14c-0.18,0.27 -0.47,0.43 -0.79,0.43s-0.62,-0.16 -0.79,-0.42c-0.02,-0.02 -0.04,-0.03 -0.06,-0.04c-0.02,-0.03 -0.05,-0.05 -0.09,-0.06c-0.03,-0.01 -0.05,-0.03 -0.09,-0.03c0,0 0,0 0,0c-0.07,0 -0.14,0.01 -0.2,0.04c0,0 0,0 0,0c0,0 0,0 0,0c-0.04,0.02 -0.08,0.05 -0.11,0.08c-0.18,0.27 -0.47,0.43 -0.79,0.43s-0.62,-0.16 -0.79,-0.42c-0.06,-0.09 -0.16,-0.14 -0.27,-0.14s-0.21,0.05 -0.27,0.14c-0.18,0.27 -0.47,0.43 -0.79,0.43s-0.62,-0.16 -0.79,-0.42c-0.06,-0.09 -0.16,-0.14 -0.27,-0.14l0,0c-0.11,0 -0.21,0.05 -0.27,0.14c-0.18,0.27 -0.47,0.43 -0.79,0.43s-0.62,-0.16 -0.79,-0.42c-0.1,-0.15 -0.3,-0.19 -0.46,-0.09c-0.07,0.05 -0.12,0.12 -0.14,0.21s0,0.17 0.05,0.25c0.3,0.45 0.8,0.72 1.34,0.72c0.39,0 0.77,-0.15 1.07,-0.4c0.29,0.26 0.67,0.4 1.07,0.4s0.77,-0.15 1.07,-0.4c0.29,0.26 0.67,0.4 1.07,0.4c0.42,0 0.82,-0.2 1.07,-0.42c0.29,0.27 0.68,0.42 1.08,0.42s0.78,-0.15 1.07,-0.4c0.29,0.26 0.67,0.4 1.07,0.4l-0.1,-0.05z"/>
   <path d="m390.8303,300.49063c0.39,0 0.77,-0.15 1.07,-0.4c0.29,0.26 0.67,0.4 1.07,0.4s0.77,-0.15 1.07,-0.4c0.29,0.26 0.67,0.4 1.07,0.4s0.86,-0.2 1.15,-0.49c0.26,-0.26 0.27,-0.41 0.2,-0.58c-0.04,-0.09 -0.13,-0.14 -0.24,-0.16c-0.13,0 -0.26,0.04 -0.32,0.14c-0.18,0.27 -0.47,0.43 -0.79,0.43s-0.62,-0.16 -0.79,-0.43c-0.06,-0.09 -0.16,-0.14 -0.27,-0.14l0,0c-0.11,0 -0.21,0.05 -0.27,0.14c-0.18,0.27 -0.48,0.43 -0.79,0.43s-0.61,-0.16 -0.79,-0.43c-0.06,-0.09 -0.16,-0.14 -0.27,-0.14l0,0c-0.11,0 -0.21,0.05 -0.27,0.14c-0.18,0.27 -0.48,0.43 -0.79,0.43s-0.61,-0.16 -0.79,-0.42c-0.1,-0.15 -0.3,-0.19 -0.46,-0.09c-0.07,0.05 -0.12,0.12 -0.14,0.21s0,0.17 0.05,0.25c0.3,0.45 0.8,0.72 1.34,0.72l-0.04,-0.01z"/>
   <path d="m396.2103,301.81063c-0.13,0 -0.26,0.04 -0.32,0.13c-0.18,0.27 -0.47,0.43 -0.79,0.43s-0.62,-0.16 -0.79,-0.42c-0.06,-0.09 -0.16,-0.14 -0.27,-0.14s-0.21,0.05 -0.27,0.14c-0.18,0.27 -0.47,0.43 -0.79,0.43s-0.62,-0.16 -0.79,-0.42c-0.06,-0.09 -0.16,-0.14 -0.27,-0.14l0,0c-0.11,0 -0.21,0.05 -0.27,0.14c-0.18,0.27 -0.47,0.43 -0.79,0.43s-0.62,-0.16 -0.79,-0.42c-0.1,-0.15 -0.3,-0.19 -0.46,-0.09c-0.07,0.05 -0.12,0.12 -0.14,0.21s0,0.17 0.05,0.25c0.3,0.45 0.8,0.72 1.34,0.72c0.39,0 0.77,-0.15 1.07,-0.4c0.29,0.26 0.67,0.4 1.07,0.4s0.77,-0.15 1.07,-0.4c0.29,0.26 0.67,0.4 1.07,0.4c0.46,0 0.91,-0.24 1.15,-0.49c0.26,-0.26 0.27,-0.41 0.2,-0.58c-0.04,-0.09 -0.13,-0.14 -0.24,-0.16l-0.04,-0.02z"/>
   <path d="m396.2103,304.36063c-0.13,0 -0.26,0.04 -0.32,0.13c-0.18,0.27 -0.47,0.43 -0.79,0.43s-0.62,-0.16 -0.79,-0.43c-0.06,-0.09 -0.16,-0.14 -0.27,-0.14l0,0c-0.11,0 -0.21,0.05 -0.27,0.14c-0.18,0.27 -0.47,0.43 -0.79,0.43s-0.62,-0.16 -0.79,-0.43c-0.06,-0.09 -0.16,-0.14 -0.27,-0.14l0,0c-0.11,0 -0.21,0.05 -0.27,0.14c-0.18,0.27 -0.47,0.43 -0.79,0.43s-0.62,-0.16 -0.79,-0.43c-0.1,-0.15 -0.3,-0.19 -0.46,-0.09c-0.15,0.1 -0.19,0.31 -0.09,0.46c0.3,0.45 0.8,0.72 1.34,0.72c0.39,0 0.77,-0.15 1.07,-0.4c0.29,0.26 0.67,0.4 1.07,0.4s0.77,-0.15 1.07,-0.4c0.29,0.26 0.67,0.4 1.07,0.4c0.46,0 0.91,-0.24 1.15,-0.49c0.26,-0.26 0.27,-0.41 0.2,-0.58c-0.04,-0.09 -0.13,-0.14 -0.24,-0.16l-0.04,0.01z"/>
   <path d="m396.2103,306.90063c-0.13,0 -0.26,0.04 -0.32,0.14c-0.18,0.27 -0.47,0.43 -0.79,0.43s-0.62,-0.16 -0.79,-0.43c-0.06,-0.09 -0.16,-0.14 -0.27,-0.14l0,0c-0.11,0 -0.21,0.05 -0.27,0.14c-0.18,0.27 -0.47,0.43 -0.79,0.43s-0.62,-0.16 -0.79,-0.43c-0.06,-0.09 -0.16,-0.14 -0.27,-0.14l0,0c-0.11,0 -0.21,0.05 -0.27,0.14c-0.18,0.27 -0.47,0.43 -0.79,0.43s-0.62,-0.16 -0.79,-0.43c-0.1,-0.15 -0.3,-0.19 -0.46,-0.09c-0.07,0.05 -0.12,0.12 -0.14,0.21s0,0.17 0.05,0.25c0.3,0.45 0.8,0.72 1.34,0.72c0.39,0 0.77,-0.15 1.07,-0.4c0.29,0.26 0.67,0.4 1.07,0.4s0.77,-0.15 1.07,-0.4c0.29,0.26 0.67,0.4 1.07,0.4c0.46,0 0.91,-0.24 1.15,-0.49c0.26,-0.26 0.27,-0.41 0.2,-0.58c-0.04,-0.09 -0.13,-0.14 -0.24,-0.16l-0.04,0z"/>
   <path d="m405.2603,302.63063c0.29,0.26 0.67,0.4 1.07,0.4s0.77,-0.15 1.07,-0.4c0.29,0.26 0.67,0.4 1.07,0.4c0.46,0 0.91,-0.24 1.15,-0.49c0.26,-0.26 0.27,-0.41 0.2,-0.58c-0.04,-0.09 -0.13,-0.14 -0.24,-0.16c-0.13,-0.01 -0.25,0.04 -0.32,0.13c-0.18,0.27 -0.47,0.43 -0.79,0.43s-0.62,-0.16 -0.79,-0.42c-0.06,-0.09 -0.16,-0.14 -0.27,-0.14l0,0c-0.11,0 -0.21,0.05 -0.27,0.14c-0.18,0.27 -0.47,0.43 -0.79,0.43s-0.62,-0.16 -0.79,-0.42c-0.06,-0.09 -0.16,-0.14 -0.27,-0.14l0,0c-0.11,0 -0.21,0.05 -0.27,0.14c-0.18,0.27 -0.47,0.43 -0.79,0.43s-0.62,-0.16 -0.79,-0.42c-0.1,-0.15 -0.3,-0.19 -0.46,-0.09c-0.07,0.05 -0.12,0.12 -0.14,0.21c-0.02,0.09 0,0.17 0.05,0.25c0.3,0.45 0.8,0.72 1.34,0.72c0.39,0 0.77,-0.15 1.07,-0.4l-0.04,-0.02z"/>
   <path d="m404.6103,305.57063c0.39,0 0.77,-0.15 1.07,-0.4c0.29,0.26 0.67,0.4 1.07,0.4s0.77,-0.15 1.07,-0.4c0.29,0.26 0.67,0.4 1.07,0.4c0.46,0 0.91,-0.24 1.15,-0.49c0.26,-0.26 0.27,-0.41 0.2,-0.58c-0.04,-0.09 -0.13,-0.14 -0.24,-0.15c-0.13,0 -0.25,0.04 -0.32,0.13c-0.18,0.27 -0.47,0.43 -0.79,0.43s-0.62,-0.16 -0.79,-0.43c-0.06,-0.09 -0.16,-0.14 -0.27,-0.14l0,0c-0.11,0 -0.21,0.05 -0.27,0.14c-0.18,0.27 -0.47,0.43 -0.79,0.43s-0.62,-0.16 -0.79,-0.43c-0.06,-0.09 -0.16,-0.14 -0.27,-0.14l0,0c-0.11,0 -0.21,0.05 -0.27,0.14c-0.18,0.27 -0.47,0.43 -0.79,0.43s-0.62,-0.16 -0.79,-0.43c-0.1,-0.15 -0.31,-0.19 -0.46,-0.09c-0.07,0.05 -0.12,0.12 -0.14,0.21s0,0.17 0.05,0.25c0.3,0.45 0.8,0.72 1.34,0.72l-0.04,0z"/>
   <path d="m410.4703,307.06063c-0.04,-0.09 -0.13,-0.15 -0.24,-0.16c-0.14,-0.02 -0.26,0.04 -0.32,0.13c-0.18,0.27 -0.48,0.43 -0.79,0.43s-0.61,-0.16 -0.79,-0.43c-0.06,-0.09 -0.16,-0.14 -0.27,-0.14l0,0c-0.11,0 -0.21,0.05 -0.27,0.14c-0.18,0.27 -0.48,0.43 -0.8,0.43s-0.61,-0.16 -0.79,-0.43c-0.06,-0.09 -0.16,-0.14 -0.27,-0.14l0,0c-0.11,0 -0.21,0.05 -0.27,0.14c-0.18,0.27 -0.48,0.43 -0.8,0.43s-0.62,-0.16 -0.79,-0.43c-0.1,-0.15 -0.3,-0.19 -0.45,-0.09c-0.07,0.05 -0.12,0.12 -0.14,0.21c-0.02,0.09 0,0.17 0.05,0.25c0.3,0.45 0.8,0.72 1.34,0.72c0.39,0 0.78,-0.15 1.07,-0.4c0.29,0.26 0.67,0.4 1.07,0.4s0.78,-0.15 1.07,-0.4c0.29,0.26 0.67,0.4 1.07,0.4c0.46,0 0.91,-0.24 1.15,-0.49c0.26,-0.26 0.27,-0.41 0.2,-0.57l-0.03,0z"/>
  </g>
  <g fill="white">
   <path d="m400,303.08935l0.00414,0c-0.28581,0 -0.52017,-0.2266 -0.5298,-0.51224l-0.75623,-7.88666c0,-1.75189 2.56378,-1.75189 2.56378,0l-0.75209,7.88666c-0.00962,0.28564 -0.24397,0.51224 -0.5298,0.51224zm0.95591,2.58235c0,0.52565 -0.42612,0.95177 -0.95177,0.95177s-0.95177,-0.42612 -0.95177,-0.95177s0.42613,-0.95176 0.95177,-0.95176s0.95177,0.42612 0.95177,0.95176z"/>
   <path d="m408.87009,294.43576c-0.00096,2.46221 -0.24026,4.60562 -0.90271,6.68541c-0.90934,2.85489 -2.47484,5.28201 -4.7748,7.21933c-0.90659,0.76363 -1.89718,1.40004 -2.95151,1.94117c-0.17579,0.09023 -0.31221,0.08694 -0.4857,0.00039c-2.17892,-1.08706 -3.98631,-2.61115 -5.42451,-4.57617c-1.47377,-2.01361 -2.39215,-4.26011 -2.83733,-6.7086c-0.32896,-1.80926 -0.4081,-3.63345 -0.34233,-5.46704c0.00748,-0.20881 0.01481,-0.41768 0.02693,-0.62624c0.01453,-0.2499 0.04143,-0.27404 0.30023,-0.27002c0.66185,0.01028 1.32108,-0.0196 1.97664,-0.11669c1.34478,-0.19915 2.59361,-0.68017 3.79899,-1.28958c0.86805,-0.43886 1.69147,-0.95399 2.50308,-1.48697c0.19385,-0.1273 0.32471,-0.1127 0.50915,0.0106c1.12771,0.75388 2.28909,1.44803 3.54511,1.97423c1.46687,0.61453 2.98503,0.95676 4.58207,0.90815c0.06773,-0.00206 0.13563,0.0011 0.20333,-0.00138c0.14692,-0.00538 0.21116,0.06055 0.22082,0.21084c0.04023,0.62608 0.05012,1.25277 0.05254,1.59257zm-16.76713,0.82368c-0.00675,1.13716 0.07763,2.26785 0.27238,3.38944c0.42119,2.42559 1.30534,4.65529 2.79605,6.62974c1.25787,1.66606 2.79674,3.00308 4.64423,3.98219c0.13057,0.06919 0.23126,0.06703 0.3579,-0.00136c0.56232,-0.30365 1.11008,-0.63136 1.62366,-1.01111c3.44536,-2.54753 5.30325,-6.01617 5.89946,-10.20926c0.20257,-1.42468 0.23318,-2.85838 0.17453,-4.29499c-0.00508,-0.12432 -0.03304,-0.17547 -0.16875,-0.17942c-1.7634,-0.05138 -3.41488,-0.53973 -4.99402,-1.29909c-0.86092,-0.41399 -1.6937,-0.88024 -2.48512,-1.41571c-0.16782,-0.11355 -0.288,-0.1108 -0.44913,0.00075c-0.25032,0.17329 -0.5155,0.32547 -0.77692,0.48236c-2.08921,1.2538 -4.28765,2.1784 -6.77159,2.23531c-0.11544,0.00264 -0.12387,0.0605 -0.12356,0.14913c0.0018,0.514 0.00088,1.02801 0.00088,1.54202z"/>
  </g>
  <g fill="white">
   <path d="m400.00001,291.48001c4.7,0 8.52,3.82 8.52,8.52s-3.82,8.52 -8.52,8.52a8.52,8.52 0 0 1 0,-17.04m0,-1.5c-5.53,0 -10.02,4.49 -10.02,10.02s4.49,10.02 10.02,10.02s10.02,-4.49 10.02,-10.02s-4.48,-10.02 -10.02,-10.02"/>
   <path d="m400.00001,294.51001c3.03,0 5.49,2.46 5.49,5.49s-2.46,5.49 -5.49,5.49s-5.49,-2.46 -5.49,-5.49s2.46,-5.49 5.49,-5.49m0,-1.5a6.99,6.99 0 1 0 0,13.981a6.99,6.99 0 0 0 0,-13.98"/>
   <path d="m400.00001,303.45001a3.45,3.45 0 1 0 0,-6.9a3.45,3.45 0 0 0 0,6.9"/>
  </g>
 </g>

</svg>