<svg id="SvgjsSvg1042" width="288" height="288" xmlns="http://www.w3.org/2000/svg" version="1.1" xmlns:xlink="http://www.w3.org/1999/xlink" xmlns:svgjs="http://svgjs.com/svgjs"><defs id="SvgjsDefs1043"></defs><g id="SvgjsG1044"><svg xmlns="http://www.w3.org/2000/svg" viewBox="0 0 24 24" width="288" height="288"><path d="M12.02 3.5c4.7 0 8.52 3.82 8.52 8.52s-3.82 8.52-8.52 8.52a8.52 8.52 0 0 1 0-17.04m0-1.5C6.49 2 2 6.49 2 12.02s4.49 10.02 10.02 10.02 10.02-4.49 10.02-10.02S17.56 2 12.02 2" fill="#ffffff" class="svgShape color000000-0 selectable"></path><path d="M12.02 6.53c3.03 0 5.49 2.46 5.49 5.49s-2.46 5.49-5.49 5.49-5.49-2.46-5.49-5.49 2.46-5.49 5.49-5.49m0-1.5a6.99 6.99 0 1 0 0 13.981 6.99 6.99 0 0 0 0-13.98" fill="#ffffff" class="svgShape color000000-1 selectable"></path><path d="M12.02 15.47a3.45 3.45 0 1 0 0-6.9 3.45 3.45 0 0 0 0 6.9" fill="#ffffff" class="svgShape color000000-2 selectable"></path></svg></g></svg>