<svg viewBox="0 0 24 24" xmlns="http://www.w3.org/2000/svg">
  <path d="M4.656 15.54c.28 0 .5-.22.5-.5V3.54c0-.28-.22-.5-.5-.5s-.5.22-.5.5v11.5c0 .28.22.5.5.5m.97.129s.09.02.13.02c.22 0 .42-.15.48-.37l1.64-6.13a.5.5 0 0 0-.35-.61.5.5 0 0 0-.61.35l-1.64 6.13a.5.5 0 0 0 .35.61m6.88-3.519c.2-.2.2-.51 0-.71s-.51-.2-.71 0l-4.49 4.49c-.2.2-.2.51 0 .71a.485.485 0 0 0 .7 0l4.49-4.49zm2.259 3.919-6.13 1.64c-.27.07-.42.35-.35.61.06.22.26.37.48.37.04 0 .09 0 .13-.02l6.13-1.64a.496.496 0 1 0-.26-.96m-8.229-.03a.495.495 0 0 0 .68-.18l7.57-13.11c.14-.24.06-.54-.18-.68a.49.49 0 0 0-.68.18l-7.57 13.11c-.14.24-.06.54.18.68M8.595 17.6l13.11-7.57c.24-.14.32-.44.18-.68a.493.493 0 0 0-.68-.18l-13.11 7.57c-.24.14-.32.44-.18.68a.495.495 0 0 0 .68.18m10.681 1.35H8.766c-.28 0-.5.22-.5.5s.22.5.5.5h10.5c.28 0 .5-.22.5-.5s-.22-.5-.5-.5zM8.015 6.839s.09.02.13.02c.22 0 .42-.15.48-.37l.24-.91a.5.5 0 0 0-.35-.61.5.5 0 0 0-.61.35l-.24.91a.5.5 0 0 0 .35.61m4.74 1.63-.45.69c-.15.23-.09.54.14.69.08.06.18.08.27.08.16 0 .32-.08.42-.23l.45-.69a.498.498 0 0 0-.83-.55zm3.991 2.1c.11 0 .21-.03.3-.1l.61-.47c.22-.17.26-.48.09-.7a.496.496 0 0 0-.7-.09l-.61.47c-.22.17-.26.48-.09.7.1.13.25.2.4.2zm.3 2.841-.83.4c-.25.12-.35.42-.24.67a.505.505 0 0 0 .67.23l.83-.4c.25-.12.35-.42.24-.67a.504.504 0 0 0-.67-.24zm5.109 1.099a.496.496 0 0 0-.61-.35l-1.11.3c-.27.07-.43.35-.35.61.06.22.26.37.48.37.04 0 .09 0 .13-.02l1.11-.3c.27-.07.43-.35.35-.61M2.745 17.46a2.63 2.63 0 0 0 .07 3.74c1.06 1.01 2.73.99 3.74-.07 1.02-1.05.99-2.73-.07-3.74s-2.73-.99-3.74.07"/>
</svg>
