<svg id="SvgjsSvg1054" width="288" height="288" xmlns="http://www.w3.org/2000/svg" version="1.1" xmlns:xlink="http://www.w3.org/1999/xlink" xmlns:svgjs="http://svgjs.com/svgjs"><defs id="SvgjsDefs1055"></defs><g id="SvgjsG1056"><svg xmlns="http://www.w3.org/2000/svg" viewBox="0 0 24 24" width="288" height="288"><path d="M4.893 17.44c.91 0 1.79-.37 2.43-1.02.63.65 1.51 1.02 2.42 1.02s1.79-.37 2.43-1.02a3.38 3.38 0 0 0 4.84 0c.63.65 1.51 1.02 2.42 1.02 1.13 0 2.19-.56 2.82-1.51.07-.1.1-.23.07-.35a.48.48 0 0 0-.2-.3.48.48 0 0 0-.35-.07c-.12.02-.23.1-.3.2-.46.68-1.22 1.09-2.03 1.09s-1.58-.41-2.03-1.09c-.18-.26-.61-.26-.79 0-.46.68-1.22 1.09-2.03 1.09s-1.58-.41-2.03-1.09c-.18-.26-.61-.26-.79 0-.46.68-1.22 1.09-2.03 1.09s-1.58-.41-2.03-1.09c-.18-.26-.61-.26-.79 0-.46.68-1.22 1.09-2.03 1.09s-1.58-.41-2.03-1.09a.46.46 0 0 0-.65-.13.46.46 0 0 0-.13.65c.63.95 1.68 1.51 2.82 1.51z" fill="#ffffff" class="svgShape color000000-0 selectable"></path><path d="M22.133 17.87c-.1-.07-.23-.1-.35-.07-.12.02-.23.1-.3.2-.46.68-1.22 1.09-2.03 1.09s-1.58-.41-2.03-1.09c-.18-.26-.61-.26-.79 0-.46.68-1.22 1.09-2.03 1.09s-1.58-.41-2.03-1.09c-.18-.26-.61-.26-.79 0-.46.68-1.22 1.09-2.03 1.09s-1.58-.41-2.03-1.09c-.18-.26-.61-.26-.79 0-.46.68-1.22 1.09-2.03 1.09s-1.58-.41-2.03-1.09a.46.46 0 0 0-.65-.13.46.46 0 0 0-.13.65c.63.95 1.68 1.51 2.82 1.51.91 0 1.79-.37 2.43-1.02.63.65 1.51 1.02 2.42 1.02s1.79-.37 2.43-1.02a3.38 3.38 0 0 0 4.84 0c.63.65 1.51 1.02 2.42 1.02 1.13 0 2.19-.56 2.82-1.51.07-.1.1-.23.07-.35a.48.48 0 0 0-.2-.3zm-18.99-7.25c.08 0 .15-.02.21-.07l1.55-1.19.02 6.08h.12c.8-.04 1.53-.47 1.98-1.14.07-.09.17-.15.29-.15s.22.06.29.15c.45.67 1.17 1.1 1.97 1.14h.32c.25-.01.49-.06.71-.14V9.88h3.12v5.42c.22.08.46.13.71.14h.32c.79-.04 1.52-.47 1.97-1.14.07-.09.17-.15.29-.15s.22.06.29.15c.44.67 1.17 1.1 1.97 1.14h.13l.02-6.08 1.55 1.19c.06.05.13.07.21.07.1 0 .21-.05.27-.14.12-.15.09-.36-.06-.48l-2.07-1.59-6.95-5.34s-.04-.03-.07-.03a.3.3 0 0 0-.13-.04h-.02s-.09.02-.13.04c-.03 0-.05.02-.07.03l-6.95 5.34L2.933 10c-.15.12-.18.33-.06.48.06.09.17.14.27.14" fill="#ffffff" class="svgShape color000000-1 selectable"></path></svg></g></svg>