<svg viewBox="0 0 24 24" xmlns="http://www.w3.org/2000/svg">
  <path d="M21.501 21.122h-3.623c1.467-.4 2.306-1.248 2.895-2.026 1.946-2.505 1.027-5.25.538-6.308a.11.11 0 0 0-.12-.07c-.05 0-.09.04-.11.09-.129.45-.388 1.038-.877 1.278-.53.26-1.058.15-1.328-.26-.33-.499-.27-1.337.18-2.495.688-1.786-.07-2.744-.749-3.592l-.15-.19c-.409-.52-.319-1.387-.239-2.156.02-.22.05-.439.06-.639 0-.05-.03-.1-.08-.12s-.1 0-.14.04c-.11.14-.249.28-.399.44-.619.638-1.377 1.437-1.068 2.585.36 1.267.42 2.095.18 2.505-.19.26-.589.798-1.457.878-.38.04-.988-.18-1.178-.39-.23-.239-.399-.618-.499-1.067 0-.05-.05-.08-.09-.09-.05-.01-.09 0-.12.05-.808 1.098-.568 2.724-.109 3.792.25.59.23 1.178-.05 1.627-.24.38-.619.609-1.008.609h-.01c-.599-.04-.848-.36-1.078-.639-.03-.04-.08-.05-.12-.04-.05.01-.08.05-.09.09-.159.749-.169 1.677-.03 2.545.14.868.5 1.637 1.039 2.235.599.66 1.347 1.088 2.315 1.328H12.06c-.33-.15-.759-.41-1.088-.759-1.237-1.327-1.237-2.804-1.227-3.712v-.23c-.02-2.156.319-2.615.608-2.625.21-.01.29.09.49.36.179.24.409.539.828.598.319.05.509-.07.608-.19.3-.338.15-.927-.05-1.686l-.03-.11c-.16-.598-.448-2.385.07-3.403.07-.14.04-.31-.08-.419l-1.097-.988a.35.35 0 0 0-.38-.06.35.35 0 0 0-.209.32v1.716L7.739 6.341c-.09-.12-.25-.17-.39-.12s-.24.18-.24.33l-.02 4.052h-.957V2.349c0-.19-.16-.349-.35-.349H3.208c-.19 0-.35.16-.35.35v18.772H2.5c-.28 0-.499.22-.499.499 0 .28.22.499.499.499h19.002c.28 0 .499-.22.499-.5a.494.494 0 0 0-.499-.498M5.004 15.453h2.355v5.559H5.004z"/>
</svg>
