<svg viewBox="0 0 24 24" xmlns="http://www.w3.org/2000/svg">
  <path d="M10.72 15.616s.05.09.1.1h.04c.04 0 .07-.01.1-.04l.74-.74s.02-.03.03-.05l.27-.65s.01-.08 0-.11a.16.16 0 0 0-.08-.08l-.26-.1s-.07-.01-.11 0l-1.01.47c-.06.03-.1.1-.08.17l.26 1.02zm-3.12-5.48s.05.02.07.02.04 0 .05-.01c.04-.02.07-.05.08-.09l.37-1.34s0-.08-.02-.12a.2.2 0 0 0-.1-.07l-1.07-.19s-.08 0-.11.03c-.03.02-.05.06-.05.1l-.09 1.06c0 .06.02.11.07.14l.79.48zm1.41.15.56.24s.04.01.05.01c.05 0 .1-.03.13-.08l.33-.67s.02-.08 0-.11a.11.11 0 0 0-.07-.08l-.7-.34s-.08-.02-.12 0-.07.05-.08.1l-.19.77c-.02.07.02.14.08.17zm3.81 7.8-.7-.34s-.08-.02-.12 0-.07.05-.08.1l-.19.77c-.02.07.02.14.08.17l.56.24s.04.01.05.01c.05 0 .1-.03.13-.08l.33-.67s.02-.08 0-.11a.11.11 0 0 0-.07-.08zm-1.03-1.09-.2-.54s-.03-.05-.06-.06c-.03 0-.06 0-.09.01l-.5.31s-.06.08-.04.13l.17.42s.01.02.02.03c.03.03.07.04.11.02l.52-.19s.05-.03.06-.06.01-.06 0-.08zm-2.95-3.59 1.03.53s.04.02.06.02.04 0 .06-.01c.04-.02.07-.06.08-.1l.19-1.01v-.05l-.09-.72s-.02-.07-.05-.09l-.28-.24s-.07-.04-.11-.03c-.04 0-.08.03-.1.07l-.84 1.44s-.03.08-.01.12c.01.04.04.07.07.09z"/>
  <path d="M21.65 20.696h-.93v-3.61l.73.64c.06.05.14.08.22.08.09 0 .19-.04.25-.12.12-.14.11-.35-.03-.46l-4.07-3.58a.3.3 0 0 0-.43 0l-4.07 3.58a.32.32 0 0 0-.03.46c.12.14.32.15.46.03l.73-.64v3.61h-.59l-2.31-1.11-1.18-1.77-.19-1.34a.36.36 0 0 0-.15-.24l-1.78-1.14-.11-2.01a.28.28 0 0 0-.08-.2l-2.91-3.62-2.52-6.04c-.07-.15-.23-.24-.38-.21-.16.03-.28.17-.28.33v17.7c0 .19.15.35.34.35h19.31c.19 0 .35-.15.35-.35s-.15-.35-.35-.35zm-3.5.01h-1.23v-2.38h1.23z"/>
</svg>
