<svg id="SvgjsSvg1076" width="288" height="288" xmlns="http://www.w3.org/2000/svg" version="1.1" xmlns:xlink="http://www.w3.org/1999/xlink" xmlns:svgjs="http://svgjs.com/svgjs"><defs id="SvgjsDefs1077"></defs><g id="SvgjsG1078"><svg xmlns="http://www.w3.org/2000/svg" viewBox="0 0 20 20" width="288" height="288"><path d="M10 2c-4.416 0-8 3.584-8 8s3.584 8 8 8 8-3.584 8-8-3.584-8-8-8m-.008 13.496a1 1 0 0 1 0-2c.552 0 1.008.448 1.008 1s-.448 1-1.008 1m.44-3.528a.44.44 0 0 1-.432.424.44.44 0 0 1-.432-.424l-.616-6.432c0-1.424 2.088-1.424 2.088 0z" fill="#ffffff" class="svgShape color000000-0 selectable"></path></svg></g></svg>