<svg id="SvgjsSvg1081" width="288" height="288" xmlns="http://www.w3.org/2000/svg" version="1.1" xmlns:xlink="http://www.w3.org/1999/xlink" xmlns:svgjs="http://svgjs.com/svgjs"><defs id="SvgjsDefs1082"></defs><g id="SvgjsG1083"><svg xmlns="http://www.w3.org/2000/svg" viewBox="0 0 24 24" width="288" height="288"><path d="M17.12 20.14c-5.17 3.09-10.25.04-10.25.04l3.8-5.58c.87.39 1.89.4 2.79-.04zM22 10.88l-6.74-.39c-.11-.95-.63-1.83-1.47-2.38l2.91-6c5.29 2.84 5.3 8.73 5.3 8.77m-7.47.48c0 1.4-1.14 2.54-2.54 2.54s-2.53-1.14-2.53-2.54 1.13-2.53 2.53-2.53 2.54 1.13 2.54 2.53m-4.46-3.22c-.78.53-1.32 1.41-1.41 2.41L2 10.79C2.02 4.77 7.25 2 7.25 2z" fill="#ffffff" class="svgShape color000000-0 selectable"></path></svg></g></svg>