<?xml version="1.0" encoding="UTF-8"?>
<svg id="TITRE" xmlns="http://www.w3.org/2000/svg" viewBox="0 0 24 24">
  <defs>
    <style>
      .cls-1 {
        fill: #fff;
        stroke: #fff;
        stroke-linecap: round;
        stroke-linejoin: round;
        stroke-width: .290048px;
      }
    </style>
  </defs>
  <path d="M11.856796,12.347493c-1.662599,0-3.325236.005931-4.987757-.005224-.396828-.002663-.462004.13101-.456652.920067l.048618,4.235057c.003027.263682.226302.486454.48796.519204.672432.084165.80891.580623.783102.958973-.036101.529155-.369377.824114-.961352.828042-.936367.006219-1.872871.008137-2.809186-.000981-.560066-.005453-.816687-.253817-.850643-.78396-.036003-.562062.20374-.955991.739366-.953049.597514.003277.616818-.292866.614432-.738865-.007974-1.490445-.001806-2.981223.024677-4.471417.007122-.400761-.120656-.555598-.521562-.510235-.245509.027793-.496321.01157-.744729.010323-.729203-.00367-1.02742-.268147-1.037958-.97807-.019851-1.337453-.025522-2.675269-.020859-4.012876.002201-.631282.278926-.885522.904138-.943579l1.072799.018246c.210285-.006026.376223-.177099.37173-.387422-.007035-.329314-.011214-.845649.00244-1.119584.026626-.534159.437823-.90855.981063-.906593.499034.001796.918939.373161.955079.881969.027027.380471.027412.764882.008218,1.145953-.015628.310245.113288.38661.403162.385985,3.363366-.00731,6.726766-.008662,10.090021.001834.313135.000977.5389-.252508.515487-.564768-.021935-.292538-.005572-.588827.001825-.88313.014325-.569848.418922-.973927.97176-.97888.541132-.004851.959922.408496.987171.975762.003662.076279.000959.152856.001427.229299,0,0-.144154,1.227245.429449,1.219765.38218-.004984.869087.003117.869087.003117.988901-.022928,1.236267.211619,1.237904,1.177694.002106,1.242167.008137,2.484368.002042,3.7265-.003579.729369-.280212.981396-.998556,1.011226-.337261.014013-.889492.024206-1.2214.02946-.155065.002455-.279721.125191-.281642.280264-.011361.917013-.047888,3.859298-.061335,4.870125-.004694.353102.072524.500593.468754.507461.638868.011058.963592.394803.926842.979939-.037213.59252-.459818.852767-1.277989.768266l-2.34398.007584c-.619149.033574-.940282-.235773-.978227-.781418-.036353-.522751.220004-.889425.740319-.942871.298949-.030707.539055-.253244.534704-.553735-.022408-1.547665-.027585-3.096102-.003619-4.643726.007017-.452968-.165051-.532385-.571128-.527386-1.681449.020686-3.363302.008676-5.045008.008676,0-.004341,0-.008684.000002-.013024Z"/>
  <g>
    <polygon class="cls-1" points="4.712665 11.386679 3.887709 11.363183 4.724243 7.164828 5.5492 7.188323 4.712665 11.386679"/>
    <polygon class="cls-1" points="7.162252 11.386679 6.337295 11.363183 7.17383 7.164828 7.998787 7.188323 7.162252 11.386679"/>
    <polygon class="cls-1" points="9.611839 11.386679 8.786882 11.363183 9.623417 7.164828 10.448373 7.188323 9.611839 11.386679"/>
    <polygon class="cls-1" points="12.061426 11.386679 11.236469 11.363183 12.073003 7.164828 12.89796 7.188323 12.061426 11.386679"/>
    <polygon class="cls-1" points="14.511012 11.386679 13.686055 11.363183 14.52259 7.164828 15.347547 7.188323 14.511012 11.386679"/>
    <polygon class="cls-1" points="16.960599 11.386679 16.135642 11.363183 16.972177 7.164828 17.797133 7.188323 16.960599 11.386679"/>
    <polygon class="cls-1" points="19.410186 11.386679 18.585229 11.363183 19.421763 7.164828 20.24672 7.188323 19.410186 11.386679"/>
  </g>
</svg>