<?xml version="1.0" encoding="UTF-8"?>
<svg id="TITRE" xmlns="http://www.w3.org/2000/svg" viewBox="0 0 24 24">
  <rect x="9.464432" y="14.304265" width="11.916996" height="3.71527"/>
  <path d="M10.263369,8.051712c.137372.306449.250433.768415.189604.776847-.013656.001893-.31924-.089552-.680387-.203029s-.817639-.2188-1.015384-.232828c-.86663-.063341-1.733364.440805-2.092816,1.218157-.72846,1.576936-.396307,3.597085,2.096254,3.987077.078158.012229.746594.707657.825702.707607l3.938262-.002475-3.674297,3.698051c-.226184.079748-8.075885.023913-8.075885.023913l-.099914-3.263413c-.027-.879414.034176-2.119946.145138-2.898599.476069-3.318039,2.147871-5.542562,4.406741-5.861672,1.771303-.25153,3.363516.557702,4.036981,2.050365Z"/>
  <path d="M7.966919,14.708734c.348468,0,5.198969-.010198,5.541456-.07647,1.326249-.256633,2.602776-.161084,2.602776-.161084-1.610838-.398471-1.489112-1.108365-1.4986-1.15525-.009488-.047256-.036837-.087815-.07628-.113861-.04-.027163-.087629-.036093-.134885-.027535-.047442.009302-.088187.036837-.114792.077024-.173583.260095-.463445.415259-.775262.415259-.312188,0-.601307-.155164-.773773-.414887-.066977-.100466-.232746-.100838-.299351-.000372-.173769.260095-.463073.415259-.774145.415259-.312188,0-.601493-.155164-.773959-.414887-.066977-.100466-.232746-.100838-.299351-.000372-.173583.260095-.463445.415259-.775262.415259-.312002,0-.601307-.155164-.773959-.414887-.066977-.100466-.232746-.100838-.299351-.000372-.173583.260095-.438846.18291-.750662.18291-.312188,0-.625906.077185-.798373-.182538-.054884-.082605-.166327-.104931-.249304-.050605-.082605.05507-.105117.167071-.050233.249304.239072.360561.640377,1.258105,1.07331,1.258105Z"/>
  <path d="M13.347769,14.484174v-4.317425l-.87641.765705c-.166048.138349-.405911.129122-.553468-.036926-.147667-.166048-.129177-.415101.036871-.553505l4.861739-4.280553c.147594-.138349.369003-.138349.516634,0l4.861739,4.280553c.166048.138404.184465.387457.036871.553505-.073815.092287-.184502.138404-.295188.138404-.092233,0-.184538-.036889-.25828-.101478l-.876446-.765705v4.317425h-7.454061Z"/>
</svg>