<?xml version="1.0"?>
<svg width="24" height="24" xmlns="http://www.w3.org/2000/svg" xmlns:svg="http://www.w3.org/2000/svg">
 <g class="layer">
  <title>Layer 1</title>
  <path d="m21.56,19.58l-3.39,-3.38a8.6,8.6 0 0 0 2.06,-5.58c0,-4.75 -3.87,-8.62 -8.62,-8.62s-8.61,3.87 -8.61,8.62s3.86,8.61 8.61,8.61c1.82,0 3.5,-0.56 4.89,-1.52l3.47,3.46c0.22,0.22 0.51,0.33 0.8,0.33s0.57,-0.11 0.79,-0.33c0.44,-0.44 0.44,-1.15 0,-1.59m-9.95,-13.64c0.95,0 1.71,0.78 1.71,1.72s-0.76,1.71 -1.71,1.71s-1.71,-0.76 -1.71,-1.71s0.77,-1.72 1.71,-1.72m3.58,10.21a7.1,7.1 0 0 1 -3.68,1.02c-1.25,0 -2.45,-0.33 -3.48,-0.91l0,-2.66c0,-1.98 1.61,-3.58 3.58,-3.58s3.58,1.6 3.58,3.58l0,2.55z" fill="#ffffff" id="svg_1"/>
 </g>
</svg>