<svg id="SvgjsSvg1131" width="288" height="288" xmlns="http://www.w3.org/2000/svg" version="1.1" xmlns:xlink="http://www.w3.org/1999/xlink" xmlns:svgjs="http://svgjs.com/svgjs"><defs id="SvgjsDefs1132"></defs><g id="SvgjsG1133"><svg xmlns="http://www.w3.org/2000/svg" viewBox="0 0 24 24" width="288" height="288"><path d="m21.56 19.58-3.39-3.38a8.6 8.6 0 0 0 2.06-5.58c0-4.75-3.87-8.62-8.62-8.62S3 5.87 3 10.62s3.86 8.61 8.61 8.61c1.82 0 3.5-.56 4.89-1.52l3.47 3.46c.22.22.51.33.8.33s.57-.11.79-.33c.44-.44.44-1.15 0-1.59M11.61 5.94c.95 0 1.71.78 1.71 1.72s-.76 1.71-1.71 1.71S9.9 8.61 9.9 7.66s.77-1.72 1.71-1.72m3.58 10.21a7.1 7.1 0 0 1-3.68 1.02c-1.25 0-2.45-.33-3.48-.91V13.6c0-1.98 1.61-3.58 3.58-3.58s3.58 1.6 3.58 3.58z" fill="#ffffff" class="svgShape color000000-0 selectable"></path></svg></g></svg>