<svg id="SvgjsSvg1104" width="288" height="288" xmlns="http://www.w3.org/2000/svg" version="1.1" xmlns:xlink="http://www.w3.org/1999/xlink" xmlns:svgjs="http://svgjs.com/svgjs"><defs id="SvgjsDefs1105"></defs><g id="SvgjsG1106"><svg xmlns="http://www.w3.org/2000/svg" viewBox="0 0 24 24" width="288" height="288"><path d="M11.43 6.23c.26-.42.66-.46.95-.36.28.1.58.38.51.83-.09.6-.78 3.86-.79 3.9l-.1.47h2.04s.6-.02.78.3c.17.3 0 .92-.5 1.71l-.38.59h3.52c1.65 0 2.99-1.33 2.99-2.98S19.11 7.7 17.46 7.7c-.28 0-.56.04-.83.12V7.6c0-3.09-2.51-5.6-5.61-5.6s-5.6 2.5-5.6 5.59v.13A2.992 2.992 0 0 0 2 10.68c0 1.65 1.34 2.99 2.99 2.99h1.92l.11-.19c.21-.34 1.54-2.54 2.88-4.75l1.52-2.51z" fill="#ffffff" class="svgShape color000000-0 selectable"></path><path d="M14.32 11.7a.39.39 0 0 0-.34-.19H11.5l.97-4.76a.38.38 0 0 0-.24-.44c-.18-.07-.38 0-.48.16l-4.5 7.51c-.07.12-.07.27 0 .39s.2.2.34.2h2.91l-1.53 5.21a.39.39 0 0 0 .37.5c.13 0 .27-.07.34-.19l4.63-8c.07-.12.07-.27 0-.39zm5.42 5.69h-7.33a.38.38 0 1 0 0 .76h7.33c.85 0 1.53.69 1.53 1.53s-.69 1.53-1.53 1.53-1.53-.69-1.53-1.53a.38.38 0 1 0-.76 0 2.3 2.3 0 1 0 2.3-2.3zm-1.46-2.34a.38.38 0 1 0 .76 0c0-.49.4-.89.89-.89s.89.4.89.89-.4.89-.89.89h-5.1a.38.38 0 1 0 0 .76h5.1c.91 0 1.65-.74 1.65-1.65s-.74-1.65-1.65-1.65-1.65.74-1.65 1.65" fill="#ffffff" class="svgShape color000000-1 selectable"></path><path d="M15.02 18.94h-1.83a.38.38 0 1 0 0 .76h1.83a.38.38 0 1 0 0-.76" fill="#ffffff" class="svgShape color000000-2 selectable"></path></svg></g></svg>