<svg viewBox="0 0 24 24" xmlns="http://www.w3.org/2000/svg">
  <path d="M21.148 3.985q-.34.255-.802.479c-.689-.34-1.562-.649-2.57-.888-1.695-.409-3.69-.618-5.775-.618-2.087 0-4.07.21-5.776.618-1.008.24-1.881.549-2.57.888a6 6 0 0 1-.801-.479c.74-.539 1.921-1.027 3.37-1.367C7.92 2.21 9.915 2 12.002 2s4.07.21 5.775.618c1.46.35 2.642.828 3.372 1.367"/>
  <path d="M22 5.271c0 .818-1.038 1.636-2.837 2.255-1.911.658-4.45 1.017-7.163 1.017s-5.252-.359-7.163-1.017C3.027 6.907 2 6.089 2 5.27c0-.329.164-.658.493-.977.781.618 2.035 1.147 3.639 1.526 1.726.41 3.761.629 5.868.629s4.142-.22 5.868-.629c1.604-.379 2.858-.908 3.639-1.526q.493.482.493.977"/>
  <path d="M19.74 8.613c-.123-.29-.298-.609-.442-.759-.853 1.247-3.494 1.856-6.372 1.856-.463 0-.925-.01-1.408-.04-3.453-.19-6.496-1.057-7.852-2.234-.267.239-.401.488-.411.738-.031.658.791 1.376 2.25 1.975 1.563.638 3.67 1.057 5.92 1.177 2.261.13 4.389-.06 6.013-.509 1.52-.429 2.405-1.047 2.435-1.716 0-.16-.05-.329-.154-.498z"/>
  <path d="M17.725 12.185c-.062.918-2.652 1.765-6.27 1.506-3.628-.26-6.084-1.466-6.022-2.394 0-.16.103-.319.257-.479 1.027.878 3.278 1.556 5.837 1.746 2.56.18 4.872-.16 6.002-.888.144.18.206.35.196.509"/>
  <path d="M16.389 14.329c-.031.478-.545.927-1.418 1.227-.956.339-2.2.469-3.515.369-1.316-.1-2.539-.41-3.433-.868-.822-.429-1.285-.948-1.254-1.427 0-.15.072-.299.175-.448.832.848 2.59 1.476 4.584 1.616s3.813-.22 4.748-.948a.8.8 0 0 1 .113.469zm-1.623 3.541c-.01.249-.33.498-.864.668-.586.19-1.356.29-2.179.26s-1.582-.17-2.148-.4c-.524-.21-.812-.479-.801-.728 0-.08.04-.16.102-.24.535.43 1.635.729 2.878.769s2.364-.19 2.93-.579c.06.08.082.16.082.24zM10.284 22c.318-.589.318-1.307 0-2.105a4 4 0 0 0-.555-1.007c.616.638 2.733.698 3.309.379.514 1.277-1.552 2.234-2.754 2.733"/>
  <path d="M14.919 16.982c-.833.349-1.953.538-3.145.538a9.4 9.4 0 0 1-1.428-.1h-.021a7.2 7.2 0 0 1-1.696-.438c-.73-.3-1.182-.718-1.182-1.077 0-.11.041-.22.124-.34.791.679 2.405 1.118 4.213 1.118 1.81 0 3.423-.43 4.214-1.118.082.12.124.23.124.34 0 .359-.453.778-1.182 1.077z"/>
</svg>
