<svg width="800" height="600" xmlns="http://www.w3.org/2000/svg">
 <g id="Layer_1">
  <title>Layer 1</title>
  <g fill="white">
   <path d="m390.36887,307.26127c-0.16,-0.33 -0.29,-0.66 -0.24,-1.04c0.07,-0.58 0.45,-0.92 0.9,-1.23c0.78,-0.52 1.54,-1.06 2.32,-1.59c0.64,-0.44 1.37,-0.39 1.93,0.14c0.4,0.38 0.8,0.76 1.18,1.16c0.23,0.24 0.49,0.32 0.78,0.19c0.44,-0.2 0.89,-0.4 1.29,-0.67c1.43,-0.96 2.63,-2.16 3.79,-3.42c0.82,-0.89 1.59,-1.82 2.17,-2.89c0.14,-0.26 0.25,-0.55 0.34,-0.83s0.02,-0.52 -0.21,-0.73c-0.38,-0.34 -0.74,-0.71 -1.1,-1.07c-0.66,-0.64 -0.74,-1.32 -0.25,-2.09c0.57,-0.88 1.15,-1.76 1.74,-2.63c0.46,-0.68 1.51,-0.81 2.11,-0.25c0.65,0.61 1.31,1.22 1.91,1.87c0.6,0.64 0.83,1.44 0.85,2.3c0.04,1.23 -0.31,2.38 -0.79,3.49c-0.67,1.54 -1.58,2.93 -2.61,4.24a27.7,27.7 0 0 1 -3.36,3.57c-1.67,1.49 -3.46,2.79 -5.55,3.64c-0.99,0.4 -2,0.67 -3.08,0.61c-0.69,-0.04 -1.33,-0.22 -1.89,-0.63c-0.03,-0.02 -0.07,-0.03 -0.11,-0.05l-2.14,-2.08l0.02,-0.01z"/>
  </g>
  <g fill="white">
   <path d="m402.13176,298.795c-0.28,0 -0.5,-0.22 -0.5,-0.5a3.06,3.06 0 0 0 -3.04,-3.05c-0.28,0 -0.5,-0.22 -0.5,-0.5s0.22,-0.5 0.5,-0.5c2.23,0 4.04,1.81 4.04,4.04c0,0.28 -0.22,0.5 -0.5,0.5l0,0.01z"/>
   <path d="m404.25076,298.685c-0.28,0 -0.5,-0.22 -0.5,-0.5c0,-2.75 -2.239,-4.99 -4.988,-4.99c-0.28,0 -0.5,-0.22 -0.5,-0.5s0.22,-0.5 0.5,-0.5a6,6 0 0 1 5.988,5.99c0,0.28 -0.22,0.5 -0.5,0.5"/>
   <path d="m406.39976,298.435c-0.28,0 -0.5,-0.22 -0.5,-0.5c0,-3.81 -3.1,-6.91 -6.909,-6.91c-0.28,0 -0.5,-0.22 -0.5,-0.5s0.22,-0.5 0.5,-0.5c4.36,0 7.909,3.55 7.909,7.91c0,0.28 -0.22,0.5 -0.5,0.5m-1.989,3.11s-0.01,0.07 -0.02,0.12a0.7,0.7 0 0 1 -0.1,0.16a5.52,5.52 0 0 1 -5.049,1.67l0,6.13c0.01,0.1 -0.03,0.18 -0.1,0.24a0.32,0.32 0 0 1 -0.24,0.11l-2.91,0c-0.19,0 -0.35,-0.16 -0.35,-0.35l0,-7.38c-1.41,-1.03 -2.319,-2.69 -2.509,-4.59c-0.19,-2.07 0.46,-4.08 1.77,-5.38c0.1,-0.1 0.27,-0.12 0.38,-0.06c0.04,0.02 0.08,0.04 0.12,0.07c0.03,0.03 0.06,0.07 0.07,0.12q0.03,0.075 0.03,0.15c0,0.08 -0.02,0.17 -0.08,0.23c-0.51,0.54 0.37,2.89 2.97,5.49c2.399,2.4 4.808,3.5 5.458,2.99c0.03,-0.03 0.07,-0.04 0.12,-0.05s0.11,-0.02 0.16,0c0.02,0 0.04,0 0.05,0.01c0.04,0.02 0.08,0.04 0.12,0.07c0.02,0.01 0.03,0.02 0.04,0.04c0.02,0.02 0.03,0.04 0.04,0.06c0.02,0.04 0.03,0.08 0.03,0.14l0,0.01z"/>
  </g>
  <g fill="white">
   <path d="m407.90499,298.43003c-0.63,-0.55 -1.36,-0.95 -2.15,-1.18c0.06,-0.35 0.08,-0.7 0.08,-1.05c0,-2.08 -1.08,-4.05 -2.8,-5.13a0.7,0.7 0 0 0 -0.37,-0.1c-0.22,0 -0.42,0.09 -0.56,0.28c-0.22,0.29 -0.18,0.69 0.08,0.94c0.73,0.67 1.15,1.62 1.15,2.61c0,1.58 -1.03,2.96 -2.51,3.36c-0.04,0 -0.07,0 -0.09,0.02c-0.24,0.06 -0.5,0.08 -0.75,0.08s-0.49,-0.03 -0.73,-0.08c-0.04,0 -0.08,-0.02 -0.13,-0.03c-1.47,-0.41 -2.49,-1.78 -2.49,-3.35c0,-1 0.41,-1.95 1.14,-2.61a0.706,0.706 0 0 0 -0.48,-1.22c-0.13,0 -0.26,0.04 -0.37,0.11c-1.72,1.09 -2.79,3.05 -2.79,5.12c0,0.36 0.03,0.7 0.08,1.05c-0.79,0.22 -1.52,0.64 -2.15,1.18c-1.55,1.33 -2.32,3.43 -2.02,5.49c0.05,0.35 0.35,0.6 0.69,0.6l0.04,0c0.37,-0.02 0.66,-0.32 0.67,-0.68c0.03,-1 0.47,-1.94 1.21,-2.58c0.6,-0.52 1.36,-0.81 2.14,-0.81c0.99,0 1.93,0.45 2.57,1.23c0.58,0.71 0.86,1.61 0.78,2.55c-0.07,0.93 -0.5,1.76 -1.19,2.35c-0.6,0.52 -1.37,0.82 -2.15,0.82c-0.15,0 -0.31,0 -0.5,-0.04l-0.1,0c-0.32,0 -0.61,0.22 -0.68,0.54c-0.08,0.35 0.11,0.71 0.46,0.82c0.6,0.21 1.24,0.31 1.87,0.31a5.8,5.8 0 0 0 3.77,-1.41c0.13,-0.11 0.25,-0.23 0.37,-0.36c0.11,0.12 0.23,0.23 0.36,0.35a5.8,5.8 0 0 0 5.66,1.1c0.35,-0.11 0.54,-0.48 0.46,-0.82a0.69,0.69 0 0 0 -0.68,-0.54l-0.1,0a3.22,3.22 0 0 1 -2.65,-0.78a3.5,3.5 0 0 1 -1.19,-2.36c-0.08,-0.92 0.2,-1.82 0.78,-2.54c0.65,-0.78 1.58,-1.23 2.57,-1.23c0.78,0 1.55,0.29 2.15,0.81c0.74,0.64 1.17,1.57 1.2,2.58c0,0.37 0.3,0.66 0.66,0.68l0.05,0c0.35,0 0.65,-0.25 0.69,-0.6c0.3,-2.06 -0.47,-4.16 -2.01,-5.49l-0.04,0.01zm-7.92,3.98c-0.82,0 -1.49,-0.67 -1.49,-1.51s0.67,-1.51 1.49,-1.51s1.48,0.68 1.48,1.51s-0.67,1.51 -1.48,1.51"/>
   <path d="m397.40099,304.20003c0,0.37 -0.03,0.72 -0.11,1.06a0.72,0.72 0 0 1 -0.44,0.49c-0.07,0.03 -0.16,0.05 -0.24,0.05c-0.14,0 -0.28,-0.05 -0.4,-0.13a5.36,5.36 0 0 1 -2.26,-3.97c-0.02,-0.22 0.07,-0.45 0.25,-0.6c0.12,-0.1 0.29,-0.16 0.45,-0.16c0.06,0 0.12,0 0.18,0.02c0.35,0.09 0.67,0.24 0.97,0.44c0.17,0.1 0.28,0.27 0.31,0.46c0.14,0.72 0.51,1.38 1.05,1.85c0.15,0.13 0.23,0.31 0.24,0.51l0,-0.02zm8.62,-2.51a5.36,5.36 0 0 1 -2.26,3.97c-0.12,0.08 -0.26,0.13 -0.4,0.13c-0.08,0 -0.16,-0.02 -0.24,-0.05c-0.22,-0.07 -0.37,-0.26 -0.44,-0.49c-0.08,-0.35 -0.12,-0.7 -0.1,-1.07c0,-0.19 0.09,-0.37 0.24,-0.5c0.54,-0.47 0.91,-1.12 1.04,-1.85c0.04,-0.19 0.15,-0.36 0.31,-0.46c0.3,-0.2 0.64,-0.35 0.97,-0.44c0.07,0 0.12,-0.02 0.19,-0.02c0.16,0 0.32,0.06 0.45,0.16c0.17,0.15 0.26,0.37 0.24,0.6l0,0.02zm-3.3,-6.01c0.04,0.22 -0.02,0.43 -0.16,0.59c-0.22,0.26 -0.48,0.49 -0.77,0.67a0.69,0.69 0 0 1 -0.64,0.04c-0.37,-0.15 -0.77,-0.23 -1.16,-0.23s-0.8,0.08 -1.17,0.24c-0.08,0.03 -0.18,0.05 -0.27,0.05c-0.13,0 -0.26,-0.04 -0.37,-0.1c-0.28,-0.18 -0.54,-0.4 -0.77,-0.67a0.7,0.7 0 0 1 -0.16,-0.59a0.74,0.74 0 0 1 0.37,-0.49c0.72,-0.38 1.55,-0.58 2.38,-0.58s1.66,0.2 2.37,0.58c0.2,0.09 0.33,0.28 0.37,0.49l-0.02,0z"/>
  </g>
  <g fill="white">
   <path d="m409.7984,307.33001l-5.88,-11.77l-0.22,-0.47c-0.59,-1.26 -1.26,-2.69 -1.26,-3.99l0,-0.33l1.41,0a0.38,0.38 0 1 0 0,-0.76l-7.68,0a0.38,0.38 0 1 0 0,0.76l1.41,0l0,0.33c0,1.3 -0.67,2.73 -1.26,3.99l-6.11,12.25c-0.27,0.59 -0.22,1.26 0.12,1.81c0.34,0.53 0.9,0.84 1.52,0.84l16.3,0c0.61,0 1.18,-0.31 1.52,-0.84c0.35,-0.54 0.39,-1.22 0.12,-1.82l0.01,0zm-10.78,-1.95c0.52,0.8 0.32,1.88 -0.46,2.42s-1.83,0.32 -2.35,-0.47c-0.52,-0.8 -0.32,-1.88 0.46,-2.42s1.83,-0.32 2.35,0.47m-0.53,-4.35a1.13,1.13 0 0 1 1.59,0.32a1.2,1.2 0 0 1 -0.31,1.63c-0.52,0.36 -1.23,0.22 -1.59,-0.32a1.2,1.2 0 0 1 0.31,-1.63m3.32,2.43c0.64,-0.45 1.52,-0.27 1.96,0.39s0.26,1.57 -0.38,2.01c-0.64,0.45 -1.52,0.27 -1.96,-0.39c-0.43,-0.66 -0.26,-1.57 0.38,-2.01m-5.03,-7.58l0.22,-0.47c0.62,-1.33 1.33,-2.84 1.33,-4.31l0,-0.33l3.36,0l0,0.33c0,1.47 0.71,2.98 1.33,4.31l2.07,4.16l-10.15,0l1.84,-3.68l0,-0.01z"/>
  </g>
  <g fill="white">
   <path d="m406.4085,289.99994l-4.298,0a0.703,0.703 0 0 0 -0.702,0.701l0,4.3c0,0.38 0.32,0.7 0.702,0.7l1.052,0l1.102,1.854l1.102,-1.853l1.052,0a0.71,0.71 0 0 0 0.702,-0.702l0,-4.299c0,-0.39 -0.32,-0.701 -0.702,-0.701l-0.01,0zm-0.51,3.868c0.17,0.17 0.17,0.45 0,0.611a0.4,0.4 0 0 1 -0.301,0.13c-0.12,0 -0.23,-0.03 -0.31,-0.13l-1.033,-1.032l-1.032,1.032c-0.08,0.09 -0.2,0.13 -0.31,0.13a0.38,0.38 0 0 1 -0.301,-0.13a0.43,0.43 0 0 1 0,-0.611l1.032,-1.032l-1.032,-1.032a0.43,0.43 0 0 1 0,-0.612a0.43,0.43 0 0 1 0.61,0l1.033,1.033l1.032,-1.033a0.43,0.43 0 0 1 0.611,0a0.43,0.43 0 0 1 0,0.612l-1.032,1.032l1.033,1.032zm0.15,6.163c0,0.992 -0.791,1.794 -1.794,1.794a1.78,1.78 0 0 1 -1.793,-1.794c0,-1.002 0.812,-1.794 1.793,-1.794c0.982,0 1.794,0.812 1.794,1.794m1.953,6.232l0,2.676a7.4,7.4 0 0 1 -3.858,1.061a7.4,7.4 0 0 1 -3.647,-0.952l0,-2.786a3.748,3.748 0 0 1 7.495,0l0.01,0.001zm-10.1,-16.263l-4.3,0c-0.38,0 -0.7,0.31 -0.7,0.711l0,4.3c0,0.38 0.32,0.7 0.7,0.7l1.053,0l1.102,1.844l1.102,-1.843l1.043,0c0.39,0 0.701,-0.321 0.701,-0.702l0,-4.299a0.7,0.7 0 0 0 -0.701,-0.711m-2.145,5.25c-0.23,0 -0.42,-0.18 -0.42,-0.41s0.19,-0.421 0.42,-0.421s0.411,0.19 0.411,0.42c0,0.231 -0.18,0.412 -0.41,0.412m0.411,-1.753a0.41,0.41 0 0 1 -0.4,0.411l-0.02,0a0.413,0.413 0 0 1 -0.412,-0.41l0,-2.278c0,-0.23 0.18,-0.41 0.411,-0.41l0.02,0c0.22,0 0.401,0.18 0.401,0.41l0,2.277zm1.382,6.533c0,0.992 -0.791,1.794 -1.793,1.794a1.78,1.78 0 0 1 -1.794,-1.794c0,-1.002 0.812,-1.794 1.793,-1.794c0.983,0 1.794,0.812 1.794,1.794m1.953,6.232l0,2.676a7.4,7.4 0 0 1 -3.858,1.061a7.4,7.4 0 0 1 -3.647,-0.951l0,-2.786a3.748,3.748 0 0 1 7.495,0l0.01,0z"/>
  </g>
  <g fill="white">
   <polygon points="400.6902961730957,293.8106384277344 397.3802967071533,293.8106384277344 397.3802967071533,298.0506286621094 399.23029708862305,298.5606384277344 398.8102970123291,297.3706359863281 401.23029708862305,298.2306213378906 400.6902961730957,293.8106384277344 "/>
   <polygon points="399.650297164917,298.5606384277344 400.0302963256836,299.66064453125 397.3802967071533,298.9306335449219 397.3802967071533,308.35064697265625 402.70029640197754,308.3706359863281 401.3202962875366,299.150634765625 399.650297164917,298.5606384277344 "/>
   <path d="m390.8303,297.94063c0.39,0 0.77,-0.15 1.07,-0.4c0.29,0.26 0.67,0.4 1.07,0.4s0.77,-0.15 1.07,-0.4c0.29,0.26 0.68,0.4 1.07,0.4c0.46,0 0.91,-0.24 1.15,-0.49l0,0c0.26,-0.26 0.27,-0.41 0.2,-0.58c-0.04,-0.09 -0.13,-0.14 -0.24,-0.16c-0.13,0 -0.26,0.04 -0.32,0.14c-0.18,0.27 -0.47,0.43 -0.79,0.43s-0.62,-0.16 -0.79,-0.43c-0.06,-0.09 -0.16,-0.14 -0.27,-0.14l0,0c-0.11,0 -0.21,0.05 -0.27,0.14c-0.18,0.27 -0.47,0.43 -0.79,0.43s-0.62,-0.16 -0.79,-0.43c-0.06,-0.09 -0.16,-0.14 -0.27,-0.14l0,0c-0.11,0 -0.21,0.05 -0.27,0.14c-0.18,0.27 -0.47,0.43 -0.79,0.43s-0.62,-0.16 -0.79,-0.43c-0.1,-0.15 -0.3,-0.19 -0.46,-0.09c-0.07,0.05 -0.12,0.12 -0.14,0.21s0,0.17 0.05,0.25c0.3,0.45 0.8,0.72 1.34,0.72l-0.04,0z"/>
   <path d="m396.2103,294.18063c-0.13,0 -0.26,0.04 -0.32,0.13c-0.18,0.27 -0.47,0.43 -0.79,0.43s-0.62,-0.16 -0.79,-0.42c-0.06,-0.09 -0.16,-0.14 -0.27,-0.14s-0.21,0.05 -0.27,0.14c-0.18,0.27 -0.47,0.43 -0.79,0.43s-0.62,-0.16 -0.79,-0.42c-0.06,-0.09 -0.16,-0.14 -0.27,-0.14l0,0c-0.11,0 -0.21,0.05 -0.27,0.14c-0.18,0.27 -0.47,0.43 -0.79,0.43s-0.62,-0.16 -0.79,-0.42c-0.1,-0.15 -0.3,-0.19 -0.46,-0.09c-0.15,0.1 -0.19,0.31 -0.09,0.46c0.3,0.45 0.8,0.72 1.34,0.72c0.39,0 0.77,-0.15 1.07,-0.4c0.29,0.26 0.67,0.4 1.07,0.4s0.77,-0.15 1.07,-0.4c0.29,0.26 0.67,0.4 1.07,0.4c0.46,0 0.91,-0.24 1.15,-0.49c0.26,-0.26 0.27,-0.41 0.2,-0.58c-0.04,-0.09 -0.13,-0.14 -0.24,-0.16l-0.04,-0.02z"/>
   <path d="m399.3903,292.85063c0.39,0 0.77,-0.15 1.07,-0.4c0.29,0.26 0.67,0.4 1.07,0.4c0.46,0 0.91,-0.24 1.15,-0.49c0.26,-0.26 0.27,-0.41 0.2,-0.57c-0.04,-0.09 -0.12,-0.15 -0.24,-0.16c-0.13,-0.01 -0.26,0.04 -0.32,0.13c-0.18,0.27 -0.47,0.43 -0.79,0.43s-0.62,-0.16 -0.79,-0.42c-0.06,-0.09 -0.16,-0.14 -0.27,-0.14l0,0c-0.11,0 -0.21,0.05 -0.27,0.14c-0.18,0.27 -0.47,0.43 -0.79,0.43s-0.62,-0.16 -0.79,-0.42c-0.06,-0.09 -0.16,-0.14 -0.27,-0.14l0,0c-0.11,0 -0.21,0.05 -0.27,0.14c-0.18,0.27 -0.47,0.43 -0.79,0.43s-0.62,-0.16 -0.79,-0.42c-0.02,-0.02 -0.04,-0.03 -0.06,-0.04c-0.02,-0.03 -0.05,-0.05 -0.09,-0.06c-0.03,-0.01 -0.05,-0.03 -0.09,-0.03c0,0 0,0 0,0c-0.07,0 -0.14,0.01 -0.2,0.04c0,0 0,0 0,0c0,0 0,0 0,0c-0.04,0.02 -0.08,0.05 -0.11,0.08c-0.18,0.27 -0.47,0.43 -0.79,0.43s-0.62,-0.16 -0.79,-0.42c-0.06,-0.09 -0.16,-0.14 -0.27,-0.14s-0.21,0.05 -0.27,0.14c-0.18,0.27 -0.47,0.43 -0.79,0.43s-0.62,-0.16 -0.79,-0.42c-0.06,-0.09 -0.16,-0.14 -0.27,-0.14l0,0c-0.11,0 -0.21,0.05 -0.27,0.14c-0.18,0.27 -0.47,0.43 -0.79,0.43s-0.62,-0.16 -0.79,-0.42c-0.1,-0.15 -0.3,-0.19 -0.46,-0.09c-0.07,0.05 -0.12,0.12 -0.14,0.21s0,0.17 0.05,0.25c0.3,0.45 0.8,0.72 1.34,0.72c0.39,0 0.77,-0.15 1.07,-0.4c0.29,0.26 0.67,0.4 1.07,0.4s0.77,-0.15 1.07,-0.4c0.29,0.26 0.67,0.4 1.07,0.4c0.42,0 0.82,-0.2 1.07,-0.42c0.29,0.27 0.68,0.42 1.08,0.42s0.78,-0.15 1.07,-0.4c0.29,0.26 0.67,0.4 1.07,0.4l-0.1,-0.05z"/>
   <path d="m390.8303,300.49063c0.39,0 0.77,-0.15 1.07,-0.4c0.29,0.26 0.67,0.4 1.07,0.4s0.77,-0.15 1.07,-0.4c0.29,0.26 0.67,0.4 1.07,0.4s0.86,-0.2 1.15,-0.49c0.26,-0.26 0.27,-0.41 0.2,-0.58c-0.04,-0.09 -0.13,-0.14 -0.24,-0.16c-0.13,0 -0.26,0.04 -0.32,0.14c-0.18,0.27 -0.47,0.43 -0.79,0.43s-0.62,-0.16 -0.79,-0.43c-0.06,-0.09 -0.16,-0.14 -0.27,-0.14l0,0c-0.11,0 -0.21,0.05 -0.27,0.14c-0.18,0.27 -0.48,0.43 -0.79,0.43s-0.61,-0.16 -0.79,-0.43c-0.06,-0.09 -0.16,-0.14 -0.27,-0.14l0,0c-0.11,0 -0.21,0.05 -0.27,0.14c-0.18,0.27 -0.48,0.43 -0.79,0.43s-0.61,-0.16 -0.79,-0.42c-0.1,-0.15 -0.3,-0.19 -0.46,-0.09c-0.07,0.05 -0.12,0.12 -0.14,0.21s0,0.17 0.05,0.25c0.3,0.45 0.8,0.72 1.34,0.72l-0.04,-0.01z"/>
   <path d="m396.2103,301.81063c-0.13,0 -0.26,0.04 -0.32,0.13c-0.18,0.27 -0.47,0.43 -0.79,0.43s-0.62,-0.16 -0.79,-0.42c-0.06,-0.09 -0.16,-0.14 -0.27,-0.14s-0.21,0.05 -0.27,0.14c-0.18,0.27 -0.47,0.43 -0.79,0.43s-0.62,-0.16 -0.79,-0.42c-0.06,-0.09 -0.16,-0.14 -0.27,-0.14l0,0c-0.11,0 -0.21,0.05 -0.27,0.14c-0.18,0.27 -0.47,0.43 -0.79,0.43s-0.62,-0.16 -0.79,-0.42c-0.1,-0.15 -0.3,-0.19 -0.46,-0.09c-0.07,0.05 -0.12,0.12 -0.14,0.21s0,0.17 0.05,0.25c0.3,0.45 0.8,0.72 1.34,0.72c0.39,0 0.77,-0.15 1.07,-0.4c0.29,0.26 0.67,0.4 1.07,0.4s0.77,-0.15 1.07,-0.4c0.29,0.26 0.67,0.4 1.07,0.4c0.46,0 0.91,-0.24 1.15,-0.49c0.26,-0.26 0.27,-0.41 0.2,-0.58c-0.04,-0.09 -0.13,-0.14 -0.24,-0.16l-0.04,-0.02z"/>
   <path d="m396.2103,304.36063c-0.13,0 -0.26,0.04 -0.32,0.13c-0.18,0.27 -0.47,0.43 -0.79,0.43s-0.62,-0.16 -0.79,-0.43c-0.06,-0.09 -0.16,-0.14 -0.27,-0.14l0,0c-0.11,0 -0.21,0.05 -0.27,0.14c-0.18,0.27 -0.47,0.43 -0.79,0.43s-0.62,-0.16 -0.79,-0.43c-0.06,-0.09 -0.16,-0.14 -0.27,-0.14l0,0c-0.11,0 -0.21,0.05 -0.27,0.14c-0.18,0.27 -0.47,0.43 -0.79,0.43s-0.62,-0.16 -0.79,-0.43c-0.1,-0.15 -0.3,-0.19 -0.46,-0.09c-0.15,0.1 -0.19,0.31 -0.09,0.46c0.3,0.45 0.8,0.72 1.34,0.72c0.39,0 0.77,-0.15 1.07,-0.4c0.29,0.26 0.67,0.4 1.07,0.4s0.77,-0.15 1.07,-0.4c0.29,0.26 0.67,0.4 1.07,0.4c0.46,0 0.91,-0.24 1.15,-0.49c0.26,-0.26 0.27,-0.41 0.2,-0.58c-0.04,-0.09 -0.13,-0.14 -0.24,-0.16l-0.04,0.01z"/>
   <path d="m396.2103,306.90063c-0.13,0 -0.26,0.04 -0.32,0.14c-0.18,0.27 -0.47,0.43 -0.79,0.43s-0.62,-0.16 -0.79,-0.43c-0.06,-0.09 -0.16,-0.14 -0.27,-0.14l0,0c-0.11,0 -0.21,0.05 -0.27,0.14c-0.18,0.27 -0.47,0.43 -0.79,0.43s-0.62,-0.16 -0.79,-0.43c-0.06,-0.09 -0.16,-0.14 -0.27,-0.14l0,0c-0.11,0 -0.21,0.05 -0.27,0.14c-0.18,0.27 -0.47,0.43 -0.79,0.43s-0.62,-0.16 -0.79,-0.43c-0.1,-0.15 -0.3,-0.19 -0.46,-0.09c-0.07,0.05 -0.12,0.12 -0.14,0.21s0,0.17 0.05,0.25c0.3,0.45 0.8,0.72 1.34,0.72c0.39,0 0.77,-0.15 1.07,-0.4c0.29,0.26 0.67,0.4 1.07,0.4s0.77,-0.15 1.07,-0.4c0.29,0.26 0.67,0.4 1.07,0.4c0.46,0 0.91,-0.24 1.15,-0.49c0.26,-0.26 0.27,-0.41 0.2,-0.58c-0.04,-0.09 -0.13,-0.14 -0.24,-0.16l-0.04,0z"/>
   <path d="m405.2603,302.63063c0.29,0.26 0.67,0.4 1.07,0.4s0.77,-0.15 1.07,-0.4c0.29,0.26 0.67,0.4 1.07,0.4c0.46,0 0.91,-0.24 1.15,-0.49c0.26,-0.26 0.27,-0.41 0.2,-0.58c-0.04,-0.09 -0.13,-0.14 -0.24,-0.16c-0.13,-0.01 -0.25,0.04 -0.32,0.13c-0.18,0.27 -0.47,0.43 -0.79,0.43s-0.62,-0.16 -0.79,-0.42c-0.06,-0.09 -0.16,-0.14 -0.27,-0.14l0,0c-0.11,0 -0.21,0.05 -0.27,0.14c-0.18,0.27 -0.47,0.43 -0.79,0.43s-0.62,-0.16 -0.79,-0.42c-0.06,-0.09 -0.16,-0.14 -0.27,-0.14l0,0c-0.11,0 -0.21,0.05 -0.27,0.14c-0.18,0.27 -0.47,0.43 -0.79,0.43s-0.62,-0.16 -0.79,-0.42c-0.1,-0.15 -0.3,-0.19 -0.46,-0.09c-0.07,0.05 -0.12,0.12 -0.14,0.21c-0.02,0.09 0,0.17 0.05,0.25c0.3,0.45 0.8,0.72 1.34,0.72c0.39,0 0.77,-0.15 1.07,-0.4l-0.04,-0.02z"/>
   <path d="m404.6103,305.57063c0.39,0 0.77,-0.15 1.07,-0.4c0.29,0.26 0.67,0.4 1.07,0.4s0.77,-0.15 1.07,-0.4c0.29,0.26 0.67,0.4 1.07,0.4c0.46,0 0.91,-0.24 1.15,-0.49c0.26,-0.26 0.27,-0.41 0.2,-0.58c-0.04,-0.09 -0.13,-0.14 -0.24,-0.15c-0.13,0 -0.25,0.04 -0.32,0.13c-0.18,0.27 -0.47,0.43 -0.79,0.43s-0.62,-0.16 -0.79,-0.43c-0.06,-0.09 -0.16,-0.14 -0.27,-0.14l0,0c-0.11,0 -0.21,0.05 -0.27,0.14c-0.18,0.27 -0.47,0.43 -0.79,0.43s-0.62,-0.16 -0.79,-0.43c-0.06,-0.09 -0.16,-0.14 -0.27,-0.14l0,0c-0.11,0 -0.21,0.05 -0.27,0.14c-0.18,0.27 -0.47,0.43 -0.79,0.43s-0.62,-0.16 -0.79,-0.43c-0.1,-0.15 -0.31,-0.19 -0.46,-0.09c-0.07,0.05 -0.12,0.12 -0.14,0.21s0,0.17 0.05,0.25c0.3,0.45 0.8,0.72 1.34,0.72l-0.04,0z"/>
   <path d="m410.4703,307.06063c-0.04,-0.09 -0.13,-0.15 -0.24,-0.16c-0.14,-0.02 -0.26,0.04 -0.32,0.13c-0.18,0.27 -0.48,0.43 -0.79,0.43s-0.61,-0.16 -0.79,-0.43c-0.06,-0.09 -0.16,-0.14 -0.27,-0.14l0,0c-0.11,0 -0.21,0.05 -0.27,0.14c-0.18,0.27 -0.48,0.43 -0.8,0.43s-0.61,-0.16 -0.79,-0.43c-0.06,-0.09 -0.16,-0.14 -0.27,-0.14l0,0c-0.11,0 -0.21,0.05 -0.27,0.14c-0.18,0.27 -0.48,0.43 -0.8,0.43s-0.62,-0.16 -0.79,-0.43c-0.1,-0.15 -0.3,-0.19 -0.45,-0.09c-0.07,0.05 -0.12,0.12 -0.14,0.21c-0.02,0.09 0,0.17 0.05,0.25c0.3,0.45 0.8,0.72 1.34,0.72c0.39,0 0.78,-0.15 1.07,-0.4c0.29,0.26 0.67,0.4 1.07,0.4s0.78,-0.15 1.07,-0.4c0.29,0.26 0.67,0.4 1.07,0.4c0.46,0 0.91,-0.24 1.15,-0.49c0.26,-0.26 0.27,-0.41 0.2,-0.57l-0.03,0z"/>
  </g>
  <g fill="white">
   <path d="m400,303.08935l0.00414,0c-0.28581,0 -0.52017,-0.2266 -0.5298,-0.51224l-0.75623,-7.88666c0,-1.75189 2.56378,-1.75189 2.56378,0l-0.75209,7.88666c-0.00962,0.28564 -0.24397,0.51224 -0.5298,0.51224zm0.95591,2.58235c0,0.52565 -0.42612,0.95177 -0.95177,0.95177s-0.95177,-0.42612 -0.95177,-0.95177s0.42613,-0.95176 0.95177,-0.95176s0.95177,0.42612 0.95177,0.95176z"/>
   <path d="m408.87009,294.43576c-0.00096,2.46221 -0.24026,4.60562 -0.90271,6.68541c-0.90934,2.85489 -2.47484,5.28201 -4.7748,7.21933c-0.90659,0.76363 -1.89718,1.40004 -2.95151,1.94117c-0.17579,0.09023 -0.31221,0.08694 -0.4857,0.00039c-2.17892,-1.08706 -3.98631,-2.61115 -5.42451,-4.57617c-1.47377,-2.01361 -2.39215,-4.26011 -2.83733,-6.7086c-0.32896,-1.80926 -0.4081,-3.63345 -0.34233,-5.46704c0.00748,-0.20881 0.01481,-0.41768 0.02693,-0.62624c0.01453,-0.2499 0.04143,-0.27404 0.30023,-0.27002c0.66185,0.01028 1.32108,-0.0196 1.97664,-0.11669c1.34478,-0.19915 2.59361,-0.68017 3.79899,-1.28958c0.86805,-0.43886 1.69147,-0.95399 2.50308,-1.48697c0.19385,-0.1273 0.32471,-0.1127 0.50915,0.0106c1.12771,0.75388 2.28909,1.44803 3.54511,1.97423c1.46687,0.61453 2.98503,0.95676 4.58207,0.90815c0.06773,-0.00206 0.13563,0.0011 0.20333,-0.00138c0.14692,-0.00538 0.21116,0.06055 0.22082,0.21084c0.04023,0.62608 0.05012,1.25277 0.05254,1.59257zm-16.76713,0.82368c-0.00675,1.13716 0.07763,2.26785 0.27238,3.38944c0.42119,2.42559 1.30534,4.65529 2.79605,6.62974c1.25787,1.66606 2.79674,3.00308 4.64423,3.98219c0.13057,0.06919 0.23126,0.06703 0.3579,-0.00136c0.56232,-0.30365 1.11008,-0.63136 1.62366,-1.01111c3.44536,-2.54753 5.30325,-6.01617 5.89946,-10.20926c0.20257,-1.42468 0.23318,-2.85838 0.17453,-4.29499c-0.00508,-0.12432 -0.03304,-0.17547 -0.16875,-0.17942c-1.7634,-0.05138 -3.41488,-0.53973 -4.99402,-1.29909c-0.86092,-0.41399 -1.6937,-0.88024 -2.48512,-1.41571c-0.16782,-0.11355 -0.288,-0.1108 -0.44913,0.00075c-0.25032,0.17329 -0.5155,0.32547 -0.77692,0.48236c-2.08921,1.2538 -4.28765,2.1784 -6.77159,2.23531c-0.11544,0.00264 -0.12387,0.0605 -0.12356,0.14913c0.0018,0.514 0.00088,1.02801 0.00088,1.54202z"/>
  </g>
  <g fill="white">
   <path d="m400.00001,291.48001c4.7,0 8.52,3.82 8.52,8.52s-3.82,8.52 -8.52,8.52a8.52,8.52 0 0 1 0,-17.04m0,-1.5c-5.53,0 -10.02,4.49 -10.02,10.02s4.49,10.02 10.02,10.02s10.02,-4.49 10.02,-10.02s-4.48,-10.02 -10.02,-10.02"/>
   <path d="m400.00001,294.51001c3.03,0 5.49,2.46 5.49,5.49s-2.46,5.49 -5.49,5.49s-5.49,-2.46 -5.49,-5.49s2.46,-5.49 5.49,-5.49m0,-1.5a6.99,6.99 0 1 0 0,13.981a6.99,6.99 0 0 0 0,-13.98"/>
   <path d="m400.00001,303.45001a3.45,3.45 0 1 0 0,-6.9a3.45,3.45 0 0 0 0,6.9"/>
  </g>
  <g fill="white">
   <path d="m392.56884,303.56979c0.28,0 0.5,-0.22 0.5,-0.5l0,-11.5c0,-0.28 -0.22,-0.5 -0.5,-0.5s-0.5,0.22 -0.5,0.5l0,11.5c0,0.28 0.22,0.5 0.5,0.5m0.97,0.129s0.09,0.02 0.13,0.02c0.22,0 0.42,-0.15 0.48,-0.37l1.64,-6.13a0.5,0.5 0 0 0 -0.35,-0.61a0.5,0.5 0 0 0 -0.61,0.35l-1.64,6.13a0.5,0.5 0 0 0 0.35,0.61m6.88,-3.519c0.2,-0.2 0.2,-0.51 0,-0.71s-0.51,-0.2 -0.71,0l-4.49,4.49c-0.2,0.2 -0.2,0.51 0,0.71a0.485,0.485 0 0 0 0.7,0l4.49,-4.49l0.01,0zm2.259,3.919l-6.13,1.64c-0.27,0.07 -0.42,0.35 -0.35,0.61c0.06,0.22 0.26,0.37 0.48,0.37c0.04,0 0.09,0 0.13,-0.02l6.13,-1.64a0.496,0.496 0 1 0 -0.26,-0.96m-8.229,-0.03a0.495,0.495 0 0 0 0.68,-0.18l7.57,-13.11c0.14,-0.24 0.06,-0.54 -0.18,-0.68a0.49,0.49 0 0 0 -0.68,0.18l-7.57,13.11c-0.14,0.24 -0.06,0.54 0.18,0.68m2.059,1.561l13.11,-7.57c0.24,-0.14 0.32,-0.44 0.18,-0.68a0.493,0.493 0 0 0 -0.68,-0.18l-13.11,7.57c-0.24,0.14 -0.32,0.44 -0.18,0.68a0.495,0.495 0 0 0 0.68,0.18m10.681,1.35l-10.51,0c-0.28,0 -0.5,0.22 -0.5,0.5s0.22,0.5 0.5,0.5l10.5,0c0.28,0 0.5,-0.22 0.5,-0.5s-0.22,-0.5 -0.5,-0.5l0.01,0zm-11.261,-12.111s0.09,0.02 0.13,0.02c0.22,0 0.42,-0.15 0.48,-0.37l0.24,-0.91a0.5,0.5 0 0 0 -0.35,-0.61a0.5,0.5 0 0 0 -0.61,0.35l-0.24,0.91a0.5,0.5 0 0 0 0.35,0.61m4.74,1.63l-0.45,0.69c-0.15,0.23 -0.09,0.54 0.14,0.69c0.08,0.06 0.18,0.08 0.27,0.08c0.16,0 0.32,-0.08 0.42,-0.23l0.45,-0.69a0.498,0.498 0 0 0 -0.83,-0.55l0,0.01zm3.991,2.1c0.11,0 0.21,-0.03 0.3,-0.1l0.61,-0.47c0.22,-0.17 0.26,-0.48 0.09,-0.7a0.496,0.496 0 0 0 -0.7,-0.09l-0.61,0.47c-0.22,0.17 -0.26,0.48 -0.09,0.7c0.1,0.13 0.25,0.2 0.4,0.2l0,-0.01zm0.3,2.841l-0.83,0.4c-0.25,0.12 -0.35,0.42 -0.24,0.67a0.505,0.505 0 0 0 0.67,0.23l0.83,-0.4c0.25,-0.12 0.35,-0.42 0.24,-0.67a0.504,0.504 0 0 0 -0.67,-0.24l0,0.01zm5.109,1.099a0.496,0.496 0 0 0 -0.61,-0.35l-1.11,0.3c-0.27,0.07 -0.43,0.35 -0.35,0.61c0.06,0.22 0.26,0.37 0.48,0.37c0.04,0 0.09,0 0.13,-0.02l1.11,-0.3c0.27,-0.07 0.43,-0.35 0.35,-0.61m-19.41,2.951a2.63,2.63 0 0 0 0.07,3.74c1.06,1.01 2.73,0.99 3.74,-0.07c1.02,-1.05 0.99,-2.73 -0.07,-3.74s-2.73,-0.99 -3.74,0.07"/>
  </g>
  <g fill="white">
   <path d="m392.71533,305.92483c0.91,0 1.79,-0.37 2.43,-1.02c0.63,0.65 1.51,1.02 2.42,1.02s1.79,-0.37 2.43,-1.02a3.38,3.38 0 0 0 4.84,0c0.63,0.65 1.51,1.02 2.42,1.02c1.13,0 2.19,-0.56 2.82,-1.51c0.07,-0.1 0.1,-0.23 0.07,-0.35a0.48,0.48 0 0 0 -0.2,-0.3a0.48,0.48 0 0 0 -0.35,-0.07c-0.12,0.02 -0.23,0.1 -0.3,0.2c-0.46,0.68 -1.22,1.09 -2.03,1.09s-1.58,-0.41 -2.03,-1.09c-0.18,-0.26 -0.61,-0.26 -0.79,0c-0.46,0.68 -1.22,1.09 -2.03,1.09s-1.58,-0.41 -2.03,-1.09c-0.18,-0.26 -0.61,-0.26 -0.79,0c-0.46,0.68 -1.22,1.09 -2.03,1.09s-1.58,-0.41 -2.03,-1.09c-0.18,-0.26 -0.61,-0.26 -0.79,0c-0.46,0.68 -1.22,1.09 -2.03,1.09s-1.58,-0.41 -2.03,-1.09a0.46,0.46 0 0 0 -0.65,-0.13a0.46,0.46 0 0 0 -0.13,0.65c0.63,0.95 1.68,1.51 2.82,1.51l-0.01,0z"/>
   <path d="m409.95533,306.35483c-0.1,-0.07 -0.23,-0.1 -0.35,-0.07c-0.12,0.02 -0.23,0.1 -0.3,0.2c-0.46,0.68 -1.22,1.09 -2.03,1.09s-1.58,-0.41 -2.03,-1.09c-0.18,-0.26 -0.61,-0.26 -0.79,0c-0.46,0.68 -1.22,1.09 -2.03,1.09s-1.58,-0.41 -2.03,-1.09c-0.18,-0.26 -0.61,-0.26 -0.79,0c-0.46,0.68 -1.22,1.09 -2.03,1.09s-1.58,-0.41 -2.03,-1.09c-0.18,-0.26 -0.61,-0.26 -0.79,0c-0.46,0.68 -1.22,1.09 -2.03,1.09s-1.58,-0.41 -2.03,-1.09a0.46,0.46 0 0 0 -0.65,-0.13a0.46,0.46 0 0 0 -0.13,0.65c0.63,0.95 1.68,1.51 2.82,1.51c0.91,0 1.79,-0.37 2.43,-1.02c0.63,0.65 1.51,1.02 2.42,1.02s1.79,-0.37 2.43,-1.02a3.38,3.38 0 0 0 4.84,0c0.63,0.65 1.51,1.02 2.42,1.02c1.13,0 2.19,-0.56 2.82,-1.51c0.07,-0.1 0.1,-0.23 0.07,-0.35a0.48,0.48 0 0 0 -0.2,-0.3l-0.01,0zm-18.99,-7.25c0.08,0 0.15,-0.02 0.21,-0.07l1.55,-1.19l0.02,6.08l0.12,0c0.8,-0.04 1.53,-0.47 1.98,-1.14c0.07,-0.09 0.17,-0.15 0.29,-0.15s0.22,0.06 0.29,0.15c0.45,0.67 1.17,1.1 1.97,1.14l0.32,0c0.25,-0.01 0.49,-0.06 0.71,-0.14l0,-5.42l3.12,0l0,5.42c0.22,0.08 0.46,0.13 0.71,0.14l0.32,0c0.79,-0.04 1.52,-0.47 1.97,-1.14c0.07,-0.09 0.17,-0.15 0.29,-0.15s0.22,0.06 0.29,0.15c0.44,0.67 1.17,1.1 1.97,1.14l0.13,0l0.02,-6.08l1.55,1.19c0.06,0.05 0.13,0.07 0.21,0.07c0.1,0 0.21,-0.05 0.27,-0.14c0.12,-0.15 0.09,-0.36 -0.06,-0.48l-2.07,-1.59l-6.95,-5.34s-0.04,-0.03 -0.07,-0.03a0.3,0.3 0 0 0 -0.13,-0.04l-0.02,0s-0.09,0.02 -0.13,0.04c-0.03,0 -0.05,0.02 -0.07,0.03l-6.95,5.34l-2.07,1.59c-0.15,0.12 -0.18,0.33 -0.06,0.48c0.06,0.09 0.17,0.14 0.27,0.14"/>
  </g>
  <g fill="white">
   <path d="m406.083,307.12212l3.425,0l0,-0.018c0.276,0 0.492,0.197 0.492,0.448c0,0.25 -0.216,0.448 -0.492,0.448l-19.016,0c-0.275,0 -0.492,-0.197 -0.492,-0.448c0,-0.25 0.217,-0.448 0.492,-0.448l4.43,0l0,-1.81l-4.332,0a0.34,0.34 0 0 1 -0.306,-0.17a0.28,0.28 0 0 1 0.03,-0.322l1.949,-2.472l-0.886,0a0.38,0.38 0 0 1 -0.295,-0.17a0.3,0.3 0 0 1 0.02,-0.323l2.076,-2.858l-0.994,0c-0.128,0 -0.256,-0.071 -0.305,-0.17a0.3,0.3 0 0 1 0.03,-0.322l1.9,-2.446l-0.523,0a0.35,0.35 0 0 1 -0.295,-0.152a0.3,0.3 0 0 1 0,-0.305l1.762,-3.019c0.01,-0.044 0.03,-0.08 0.05,-0.116c0.127,-0.188 0.472,-0.188 0.6,0c0.02,0.027 0.039,0.09 0.039,0.09l1.772,3.036a0.27,0.27 0 0 1 0,0.305a0.36,0.36 0 0 1 -0.296,0.161l-0.521,0l1.9,2.437a0.28,0.28 0 0 1 0.029,0.322a0.36,0.36 0 0 1 -0.305,0.17l-0.994,0l2.047,2.822c0.118,0.054 0.256,0.099 0.433,0.108c0.305,0 0.61,-0.162 0.807,-0.448c0.246,-0.35 0.256,-0.816 0.04,-1.281c-0.473,-1.013 -0.72,-2.571 0.137,-3.628a0.38,0.38 0 0 1 0.354,-0.117a0.32,0.32 0 0 1 0.266,0.242c0.079,0.367 0.236,0.68 0.433,0.869c0.138,0.134 0.67,0.322 0.985,0.287c0.765,-0.063 1.12,-0.5 1.287,-0.706l0.002,-0.002c0.197,-0.296 0.128,-1.012 -0.207,-2.087c-0.344,-1.156 0.492,-1.953 1.112,-2.535q0.222,-0.202 0.384,-0.377a0.38,0.38 0 0 1 0.394,-0.098a0.33,0.33 0 0 1 0.216,0.313q-0.011,0.18 -0.034,0.368l-0.025,0.224c-0.078,0.654 -0.157,1.397 0.188,1.8l0.147,0.17l0.01,0.012c0.668,0.76 1.502,1.708 0.768,3.428c-0.414,0.968 -0.483,1.684 -0.197,2.07c0.216,0.295 0.61,0.358 1.033,0.17c0.414,-0.188 0.64,-0.663 0.758,-1.03a0.33,0.33 0 0 1 0.305,-0.224a0.35,0.35 0 0 1 0.335,0.179c0.502,0.994 1.447,3.556 -0.561,5.912c-0.522,0.618 -1.23,1.299 -2.362,1.711m-10.176,-1.827l0,1.81l4.872,0a4.4,4.4 0 0 1 -1.743,-1.067a3.6,3.6 0 0 1 -0.57,-0.743l-2.559,0z"/>
  </g>
  <g fill="white">
   <path d="m409.49999,309.062l-3.623,0c1.467,-0.4 2.306,-1.248 2.895,-2.026c1.946,-2.505 1.027,-5.25 0.538,-6.308a0.11,0.11 0 0 0 -0.12,-0.07c-0.05,0 -0.09,0.04 -0.11,0.09c-0.129,0.45 -0.388,1.038 -0.877,1.278c-0.53,0.26 -1.058,0.15 -1.328,-0.26c-0.33,-0.499 -0.27,-1.337 0.18,-2.495c0.688,-1.786 -0.07,-2.744 -0.749,-3.592l-0.15,-0.19c-0.409,-0.52 -0.319,-1.387 -0.239,-2.156c0.02,-0.22 0.05,-0.439 0.06,-0.639c0,-0.05 -0.03,-0.1 -0.08,-0.12s-0.1,0 -0.14,0.04c-0.11,0.14 -0.249,0.28 -0.399,0.44c-0.619,0.638 -1.377,1.437 -1.068,2.585c0.36,1.267 0.42,2.095 0.18,2.505c-0.19,0.26 -0.589,0.798 -1.457,0.878c-0.38,0.04 -0.988,-0.18 -1.178,-0.39c-0.23,-0.239 -0.399,-0.618 -0.499,-1.067c0,-0.05 -0.05,-0.08 -0.09,-0.09c-0.05,-0.01 -0.09,0 -0.12,0.05c-0.808,1.098 -0.568,2.724 -0.109,3.792c0.25,0.59 0.23,1.178 -0.05,1.627c-0.24,0.38 -0.619,0.609 -1.008,0.609l-0.01,0c-0.599,-0.04 -0.848,-0.36 -1.078,-0.639c-0.03,-0.04 -0.08,-0.05 -0.12,-0.04c-0.05,0.01 -0.08,0.05 -0.09,0.09c-0.159,0.749 -0.169,1.677 -0.03,2.545c0.14,0.868 0.5,1.637 1.039,2.235c0.599,0.66 1.347,1.088 2.315,1.328l-1.926,0c-0.33,-0.15 -0.759,-0.41 -1.088,-0.759c-1.237,-1.327 -1.237,-2.804 -1.227,-3.712l0,-0.23c-0.02,-2.156 0.319,-2.615 0.608,-2.625c0.21,-0.01 0.29,0.09 0.49,0.36c0.179,0.24 0.409,0.539 0.828,0.598c0.319,0.05 0.509,-0.07 0.608,-0.19c0.3,-0.338 0.15,-0.927 -0.05,-1.686l-0.03,-0.11c-0.16,-0.598 -0.448,-2.385 0.07,-3.403c0.07,-0.14 0.04,-0.31 -0.08,-0.419l-1.097,-0.988a0.35,0.35 0 0 0 -0.38,-0.06a0.35,0.35 0 0 0 -0.209,0.32l0,1.716l-2.764,-3.603c-0.09,-0.12 -0.25,-0.17 -0.39,-0.12s-0.24,0.18 -0.24,0.33l-0.02,4.052l-0.957,0l0,-8.254c0,-0.19 -0.16,-0.349 -0.35,-0.349l-2.574,0c-0.19,0 -0.35,0.16 -0.35,0.35l0,18.772l-0.358,0c-0.28,0 -0.499,0.22 -0.499,0.499c0,0.28 0.22,0.499 0.499,0.499l19.002,0c0.28,0 0.499,-0.22 0.499,-0.5a0.494,0.494 0 0 0 -0.499,-0.498m-16.498,-5.669l2.355,0l0,5.559l-2.355,0l0,-5.559z"/>
  </g>
  <g fill="white">
   <path d="m398.71847,303.42288s0.05,0.09 0.1,0.1l0.04,0c0.04,0 0.07,-0.01 0.1,-0.04l0.74,-0.74s0.02,-0.03 0.03,-0.05l0.27,-0.65s0.01,-0.08 0,-0.11a0.16,0.16 0 0 0 -0.08,-0.08l-0.26,-0.1s-0.07,-0.01 -0.11,0l-1.01,0.47c-0.06,0.03 -0.1,0.1 -0.08,0.17l0.26,1.02l0,0.01zm-3.12,-5.48s0.05,0.02 0.07,0.02s0.04,0 0.05,-0.01c0.04,-0.02 0.07,-0.05 0.08,-0.09l0.37,-1.34s0,-0.08 -0.02,-0.12a0.2,0.2 0 0 0 -0.1,-0.07l-1.07,-0.19s-0.08,0 -0.11,0.03c-0.03,0.02 -0.05,0.06 -0.05,0.1l-0.09,1.06c0,0.06 0.02,0.11 0.07,0.14l0.79,0.48l0.01,-0.01zm1.41,0.15l0.56,0.24s0.04,0.01 0.05,0.01c0.05,0 0.1,-0.03 0.13,-0.08l0.33,-0.67s0.02,-0.08 0,-0.11a0.11,0.11 0 0 0 -0.07,-0.08l-0.7,-0.34s-0.08,-0.02 -0.12,0s-0.07,0.05 -0.08,0.1l-0.19,0.77c-0.02,0.07 0.02,0.14 0.08,0.17l0.01,-0.01zm3.81,7.8l-0.7,-0.34s-0.08,-0.02 -0.12,0s-0.07,0.05 -0.08,0.1l-0.19,0.77c-0.02,0.07 0.02,0.14 0.08,0.17l0.56,0.24s0.04,0.01 0.05,0.01c0.05,0 0.1,-0.03 0.13,-0.08l0.33,-0.67s0.02,-0.08 0,-0.11a0.11,0.11 0 0 0 -0.07,-0.08l0.01,-0.01zm-1.03,-1.09l-0.2,-0.54s-0.03,-0.05 -0.06,-0.06c-0.03,0 -0.06,0 -0.09,0.01l-0.5,0.31s-0.06,0.08 -0.04,0.13l0.17,0.42s0.01,0.02 0.02,0.03c0.03,0.03 0.07,0.04 0.11,0.02l0.52,-0.19s0.05,-0.03 0.06,-0.06s0.01,-0.06 0,-0.08l0.01,0.01zm-2.95,-3.59l1.03,0.53s0.04,0.02 0.06,0.02s0.04,0 0.06,-0.01c0.04,-0.02 0.07,-0.06 0.08,-0.1l0.19,-1.01l0,-0.05l-0.09,-0.72s-0.02,-0.07 -0.05,-0.09l-0.28,-0.24s-0.07,-0.04 -0.11,-0.03c-0.04,0 -0.08,0.03 -0.1,0.07l-0.84,1.44s-0.03,0.08 -0.01,0.12c0.01,0.04 0.04,0.07 0.07,0.09l-0.01,-0.02z"/>
   <path d="m409.64847,308.50288l-0.93,0l0,-3.61l0.73,0.64c0.06,0.05 0.14,0.08 0.22,0.08c0.09,0 0.19,-0.04 0.25,-0.12c0.12,-0.14 0.11,-0.35 -0.03,-0.46l-4.07,-3.58a0.3,0.3 0 0 0 -0.43,0l-4.07,3.58a0.32,0.32 0 0 0 -0.03,0.46c0.12,0.14 0.32,0.15 0.46,0.03l0.73,-0.64l0,3.61l-0.59,0l-2.31,-1.11l-1.18,-1.77l-0.19,-1.34a0.36,0.36 0 0 0 -0.15,-0.24l-1.78,-1.14l-0.11,-2.01a0.28,0.28 0 0 0 -0.08,-0.2l-2.91,-3.62l-2.52,-6.04c-0.07,-0.15 -0.23,-0.24 -0.38,-0.21c-0.16,0.03 -0.28,0.17 -0.28,0.33l0,17.7c0,0.19 0.15,0.35 0.34,0.35l19.31,0c0.19,0 0.35,-0.15 0.35,-0.35s-0.15,-0.35 -0.35,-0.35l0,0.01zm-3.5,0.01l-1.23,0l0,-2.38l1.23,0l0,2.38z"/>
  </g>
  <g fill="white">
   <path d="m400,292c-4.416,0 -8,3.584 -8,8s3.584,8 8,8s8,-3.584 8,-8s-3.584,-8 -8,-8m-0.008,13.496a1,1 0 0 1 0,-2c0.552,0 1.008,0.448 1.008,1s-0.448,1 -1.008,1m0.44,-3.528a0.44,0.44 0 0 1 -0.432,0.424a0.44,0.44 0 0 1 -0.432,-0.424l-0.616,-6.432c0,-1.424 2.088,-1.424 2.088,0l-0.608,6.432z"/>
  </g>
  <g fill="white">
   <path d="m405.12,308.3781c-5.17,3.09 -10.25,0.04 -10.25,0.04l3.8,-5.58c0.87,0.39 1.89,0.4 2.79,-0.04l3.66,5.58zm4.88,-9.26l-6.74,-0.39c-0.11,-0.95 -0.63,-1.83 -1.47,-2.38l2.91,-6c5.29,2.84 5.3,8.73 5.3,8.77m-7.47,0.48c0,1.4 -1.14,2.54 -2.54,2.54s-2.53,-1.14 -2.53,-2.54s1.13,-2.53 2.53,-2.53s2.54,1.13 2.54,2.53m-4.46,-3.22c-0.78,0.53 -1.32,1.41 -1.41,2.41l-6.66,0.24c0.02,-6.02 5.25,-8.79 5.25,-8.79l2.82,6.14z"/>
  </g>
  <g fill="white">
   <path d="m399.7896,300.43578c-1.6626,0 -3.32524,0.00593 -4.98776,-0.00522c-0.39683,-0.00266 -0.46201,0.13101 -0.45665,0.92007l0.04861,4.23505c0.00303,0.26368 0.22631,0.48646 0.48796,0.51921c0.67244,0.08416 0.80891,0.58062 0.78311,0.95897c-0.0361,0.52915 -0.36938,0.82411 -0.96136,0.82804c-0.93636,0.00622 -1.87287,0.00814 -2.80918,-0.00098c-0.56007,-0.00545 -0.81669,-0.25382 -0.85064,-0.78396c-0.03601,-0.56206 0.20374,-0.95599 0.73936,-0.95305c0.59752,0.00328 0.61682,-0.29286 0.61443,-0.73886c-0.00797,-1.49045 -0.0018,-2.98123 0.02468,-4.47142c0.00712,-0.40076 -0.12066,-0.5556 -0.52156,-0.51024c-0.24551,0.0278 -0.49632,0.01157 -0.74473,0.01033c-0.7292,-0.00367 -1.02742,-0.26815 -1.03796,-0.97807c-0.01985,-1.33746 -0.02552,-2.67527 -0.02086,-4.01288c0.0022,-0.63128 0.27893,-0.88552 0.90414,-0.94358l1.0728,0.01825c0.21028,-0.00603 0.37622,-0.1771 0.37173,-0.38742c-0.00704,-0.32932 -0.01121,-0.84565 0.00244,-1.11959c0.02663,-0.53416 0.43782,-0.90855 0.98106,-0.90659c0.49904,0.0018 0.91894,0.37316 0.95508,0.88197c0.02703,0.38047 0.02741,0.76488 0.00822,1.14595c-0.01563,0.31025 0.11329,0.38661 0.40316,0.38599c3.36337,-0.00731 6.72677,-0.00867 10.09002,0.00183c0.31314,0.00098 0.5389,-0.25251 0.51549,-0.56477c-0.02193,-0.29254 -0.00557,-0.58882 0.00182,-0.88313c0.01433,-0.56985 0.41893,-0.97392 0.97176,-0.97888c0.54114,-0.00485 0.95993,0.4085 0.98718,0.97576c0.00366,0.07628 0.00096,0.15286 0.00142,0.2293c0,0 -0.14415,1.22725 0.42945,1.21977c0.38218,-0.00499 0.86909,0.00312 0.86909,0.00312c0.9889,-0.02293 1.23627,0.21161 1.2379,1.17769c0.00211,1.24217 0.00814,2.48437 0.00205,3.7265c-0.00358,0.72937 -0.28022,0.9814 -0.99856,1.01123c-0.33726,0.01401 -0.88949,0.0242 -1.2214,0.02946c-0.15507,0.00245 -0.27972,0.12519 -0.28164,0.28026c-0.01136,0.91701 -0.04789,3.8593 -0.06134,4.87012c-0.00469,0.35311 0.07253,0.5006 0.46876,0.50747c0.63886,0.01105 0.96359,0.3948 0.92684,0.97993c-0.03722,0.59252 -0.45982,0.85277 -1.27799,0.76827l-2.34398,0.00759c-0.61915,0.03357 -0.94028,-0.23578 -0.97823,-0.78142c-0.03635,-0.52275 0.22001,-0.88943 0.74032,-0.94287c0.29895,-0.03071 0.53906,-0.25325 0.53471,-0.55374c-0.02241,-1.54766 -0.02759,-3.0961 -0.00362,-4.64372c0.00701,-0.45297 -0.16505,-0.53239 -0.57113,-0.52739c-1.68145,0.02069 -3.3633,0.00868 -5.04501,0.00868c0,-0.00435 0,-0.00869 0,-0.01303l0.00001,0zm-7.14413,-0.96081l-0.82496,-0.0235l0.83653,-4.19835l0.82496,0.02349l-0.83653,4.19836zm2.44958,0l-0.82495,-0.0235l0.83653,-4.19835l0.82496,0.02349l-0.83654,4.19836zm2.44959,0l-0.82496,-0.0235l0.83654,-4.19835l0.82495,0.02349l-0.83653,4.19836zm2.44959,0l-0.82496,-0.0235l0.83653,-4.19835l0.82496,0.02349l-0.83653,4.19836zm2.44958,0l-0.82496,-0.0235l0.83654,-4.19835l0.82496,0.02349l-0.83654,4.19836zm2.44959,0l-0.82496,-0.0235l0.83654,-4.19835l0.82495,0.02349l-0.83653,4.19836zm2.44959,0l-0.82496,-0.0235l0.83653,-4.19835l0.82496,0.02349l-0.83653,4.19836z" fill-rule="evenodd"/>
  </g>
  <g fill="white">
   <rect height="3.71527" width="11.917" y="302.30426" x="397.46443"/>
   <path d="m398.26337,296.05171c0.13737,0.30645 0.25043,0.76842 0.1896,0.77685c-0.01365,0.00189 -0.31924,-0.08955 -0.68038,-0.20303s-0.81764,-0.2188 -1.01539,-0.23283c-0.86663,-0.06334 -1.73336,0.44081 -2.09281,1.21816c-0.72846,1.57693 -0.39631,3.59708 2.09625,3.98708c0.07816,0.01223 0.74659,0.70765 0.8257,0.7076l3.93826,-0.00247l-3.67429,3.69805c-0.22619,0.07975 -8.07589,0.02391 -8.07589,0.02391l-0.09991,-3.26341c-0.027,-0.87942 0.03417,-2.11995 0.14514,-2.8986c0.47606,-3.31804 2.14787,-5.54256 4.40674,-5.86167c1.7713,-0.25153 3.36351,0.5577 4.03698,2.05036z"/>
   <path d="m395.96692,302.70873c0.34847,0 5.19897,-0.01019 5.54146,-0.07647c1.32624,-0.25663 2.60277,-0.16108 2.60277,-0.16108c-1.61084,-0.39847 -1.48911,-1.10837 -1.4986,-1.15525c-0.00949,-0.04726 -0.03684,-0.08782 -0.07628,-0.11386c-0.04,-0.02716 -0.08763,-0.03609 -0.13488,-0.02754c-0.04745,0.00931 -0.08819,0.03684 -0.1148,0.07703c-0.17358,0.26009 -0.46344,0.41526 -0.77526,0.41526c-0.31219,0 -0.60131,-0.15517 -0.77377,-0.41489c-0.06698,-0.10047 -0.23275,-0.10084 -0.29935,-0.00037c-0.17377,0.26009 -0.46308,0.41526 -0.77415,0.41526c-0.31219,0 -0.60149,-0.15517 -0.77396,-0.41489c-0.06697,-0.10047 -0.23274,-0.10084 -0.29935,-0.00037c-0.17358,0.26009 -0.46344,0.41526 -0.77526,0.41526c-0.312,0 -0.60131,-0.15517 -0.77396,-0.41489c-0.06697,-0.10047 -0.23274,-0.10084 -0.29935,-0.00037c-0.17358,0.26009 -0.43884,0.18291 -0.75066,0.18291c-0.31219,0 -0.62591,0.07718 -0.79837,-0.18254c-0.05489,-0.08261 -0.16633,-0.10493 -0.24931,-0.05061c-0.0826,0.05507 -0.10511,0.16708 -0.05023,0.24931c0.23907,0.36056 0.64038,1.2581 1.07331,1.2581z"/>
   <path d="m401.34777,302.48417l0,-4.31742l-0.87641,0.7657c-0.16605,0.13835 -0.40591,0.12913 -0.55347,-0.03692c-0.14767,-0.16605 -0.12918,-0.4151 0.03687,-0.55351l4.86174,-4.28055c0.1476,-0.13835 0.369,-0.13835 0.51663,0l4.86174,4.28055c0.16605,0.13841 0.18447,0.38746 0.03688,0.55351c-0.07382,0.09229 -0.18451,0.1384 -0.29519,0.1384c-0.09224,0 -0.18454,-0.03689 -0.25828,-0.10148l-0.87645,-0.7657l0,4.31742l-7.45406,0z"/>
  </g>
  <g fill="white">
   <path d="m407.5853,293.24021c0.47,0.385 0.552,1.094 0.184,1.585l-8.806,11.742c-0.19,0.254 -0.476,0.41 -0.784,0.43s-0.61,-0.098 -0.829,-0.325l-5.031,-5.219a1.165,1.165 0 0 1 -0.005,-1.596a1.05,1.05 0 0 1 1.529,-0.006l4.169,4.324l8.056,-10.742a1.05,1.05 0 0 1 1.517,-0.193"/>
  </g>
  <g fill="white">
   <path d="m399.40501,294.24001c0.26,-0.42 0.66,-0.46 0.95,-0.36c0.28,0.1 0.58,0.38 0.51,0.83c-0.09,0.6 -0.78,3.86 -0.79,3.9l-0.1,0.47l2.04,0s0.6,-0.02 0.78,0.3c0.17,0.3 0,0.92 -0.5,1.71l-0.38,0.59l3.52,0c1.65,0 2.99,-1.33 2.99,-2.98s-1.34,-2.99 -2.99,-2.99c-0.28,0 -0.56,0.04 -0.83,0.12l0,-0.22c0,-3.09 -2.51,-5.6 -5.61,-5.6s-5.6,2.5 -5.6,5.59l0,0.13a2.992,2.992 0 0 0 -3.42,2.96c0,1.65 1.34,2.99 2.99,2.99l1.92,0l0.11,-0.19c0.21,-0.34 1.54,-2.54 2.88,-4.75l1.52,-2.51l0.01,0.01z"/>
   <path d="m402.29501,299.71001a0.39,0.39 0 0 0 -0.34,-0.19l-2.48,0l0.97,-4.76a0.38,0.38 0 0 0 -0.24,-0.44c-0.18,-0.07 -0.38,0 -0.48,0.16l-4.5,7.51c-0.07,0.12 -0.07,0.27 0,0.39s0.2,0.2 0.34,0.2l2.91,0l-1.53,5.21a0.39,0.39 0 0 0 0.37,0.5c0.13,0 0.27,-0.07 0.34,-0.19l4.63,-8c0.07,-0.12 0.07,-0.27 0,-0.39l0.01,0zm5.42,5.69l-7.33,0a0.38,0.38 0 1 0 0,0.76l7.33,0c0.85,0 1.53,0.69 1.53,1.53s-0.69,1.53 -1.53,1.53s-1.53,-0.69 -1.53,-1.53a0.38,0.38 0 1 0 -0.76,0a2.3,2.3 0 1 0 2.3,-2.3l-0.01,0.01zm-1.46,-2.34a0.38,0.38 0 1 0 0.76,0c0,-0.49 0.4,-0.89 0.89,-0.89s0.89,0.4 0.89,0.89s-0.4,0.89 -0.89,0.89l-5.1,0a0.38,0.38 0 1 0 0,0.76l5.1,0c0.91,0 1.65,-0.74 1.65,-1.65s-0.74,-1.65 -1.65,-1.65s-1.65,0.74 -1.65,1.65"/>
   <path d="m402.99501,306.95001l-1.83,0a0.38,0.38 0 1 0 0,0.76l1.83,0a0.38,0.38 0 1 0 0,-0.76"/>
  </g>
  <g fill="white">
   <path d="m409.148,291.985q-0.34,0.255 -0.802,0.479c-0.689,-0.34 -1.562,-0.649 -2.57,-0.888c-1.695,-0.409 -3.69,-0.618 -5.775,-0.618c-2.087,0 -4.07,0.21 -5.776,0.618c-1.008,0.24 -1.881,0.549 -2.57,0.888a6,6 0 0 1 -0.801,-0.479c0.74,-0.539 1.921,-1.027 3.37,-1.367c1.696,-0.408 3.691,-0.618 5.778,-0.618s4.07,0.21 5.775,0.618c1.46,0.35 2.642,0.828 3.372,1.367"/>
   <path d="m410,293.271c0,0.818 -1.038,1.636 -2.837,2.255c-1.911,0.658 -4.45,1.017 -7.163,1.017s-5.252,-0.359 -7.163,-1.017c-1.81,-0.619 -2.837,-1.437 -2.837,-2.256c0,-0.329 0.164,-0.658 0.493,-0.977c0.781,0.618 2.035,1.147 3.639,1.526c1.726,0.41 3.761,0.629 5.868,0.629s4.142,-0.22 5.868,-0.629c1.604,-0.379 2.858,-0.908 3.639,-1.526q0.493,0.482 0.493,0.977"/>
   <path d="m407.74,296.613c-0.123,-0.29 -0.298,-0.609 -0.442,-0.759c-0.853,1.247 -3.494,1.856 -6.372,1.856c-0.463,0 -0.925,-0.01 -1.408,-0.04c-3.453,-0.19 -6.496,-1.057 -7.852,-2.234c-0.267,0.239 -0.401,0.488 -0.411,0.738c-0.031,0.658 0.791,1.376 2.25,1.975c1.563,0.638 3.67,1.057 5.92,1.177c2.261,0.13 4.389,-0.06 6.013,-0.509c1.52,-0.429 2.405,-1.047 2.435,-1.716c0,-0.16 -0.05,-0.329 -0.154,-0.498l0.021,0.01z"/>
   <path d="m405.725,300.185c-0.062,0.918 -2.652,1.765 -6.27,1.506c-3.628,-0.26 -6.084,-1.466 -6.022,-2.394c0,-0.16 0.103,-0.319 0.257,-0.479c1.027,0.878 3.278,1.556 5.837,1.746c2.56,0.18 4.872,-0.16 6.002,-0.888c0.144,0.18 0.206,0.35 0.196,0.509"/>
   <path d="m404.389,302.329c-0.031,0.478 -0.545,0.927 -1.418,1.227c-0.956,0.339 -2.2,0.469 -3.515,0.369c-1.316,-0.1 -2.539,-0.41 -3.433,-0.868c-0.822,-0.429 -1.285,-0.948 -1.254,-1.427c0,-0.15 0.072,-0.299 0.175,-0.448c0.832,0.848 2.59,1.476 4.584,1.616s3.813,-0.22 4.748,-0.948a0.8,0.8 0 0 1 0.113,0.469l0,0.01zm-1.623,3.541c-0.01,0.249 -0.33,0.498 -0.864,0.668c-0.586,0.19 -1.356,0.29 -2.179,0.26s-1.582,-0.17 -2.148,-0.4c-0.524,-0.21 -0.812,-0.479 -0.801,-0.728c0,-0.08 0.04,-0.16 0.102,-0.24c0.535,0.43 1.635,0.729 2.878,0.769s2.364,-0.19 2.93,-0.579c0.06,0.08 0.082,0.16 0.082,0.24l0,0.01zm-4.482,4.13c0.318,-0.589 0.318,-1.307 0,-2.105a4,4 0 0 0 -0.555,-1.007c0.616,0.638 2.733,0.698 3.309,0.379c0.514,1.277 -1.552,2.234 -2.754,2.733"/>
   <path d="m402.919,304.982c-0.833,0.349 -1.953,0.538 -3.145,0.538a9.4,9.4 0 0 1 -1.428,-0.1l-0.021,0a7.2,7.2 0 0 1 -1.696,-0.438c-0.73,-0.3 -1.182,-0.718 -1.182,-1.077c0,-0.11 0.041,-0.22 0.124,-0.34c0.791,0.679 2.405,1.118 4.213,1.118c1.81,0 3.423,-0.43 4.214,-1.118c0.082,0.12 0.124,0.23 0.124,0.34c0,0.359 -0.453,0.778 -1.182,1.077l-0.021,0z"/>
  </g>
 </g>

</svg>