<?xml version="1.0"?>
<svg width="24" height="24" xmlns="http://www.w3.org/2000/svg" xmlns:svg="http://www.w3.org/2000/svg">
 <g class="layer">
  <title>Layer 1</title>
  <path d="m21.51,19.19l-1.91,0l0.02,-7.12l1.63,1.25a0.35,0.35 0 0 0 0.22,0.08a0.33,0.33 0 0 0 0.28,-0.15a0.35,0.35 0 0 0 -0.05,-0.5l-2.18,-1.66l-3.51,-2.7c0,0.3 -0.07,0.65 -0.22,1.04c-0.39,1.01 -0.44,1.76 -0.13,2.22a0.84,0.84 0 0 0 0.72,0.39c0.18,0 0.35,-0.05 0.53,-0.13c0.44,-0.22 0.68,-0.72 0.81,-1.15c0.48,1.04 1.1,3.25 -0.46,5.26c-0.55,0.72 -1.56,1.86 -3.9,1.86c-1.65,0 -2.83,-0.36 -3.67,-1.28a3.6,3.6 0 0 1 -0.87,-1.85c-0.1,-0.7 -0.1,-1.48 0.02,-2.12c0.21,0.25 0.44,0.55 0.99,0.58c0.39,0 0.74,-0.21 0.95,-0.55c0.27,-0.42 0.29,-0.95 0.05,-1.48c-0.33,-0.79 -0.61,-2.18 0.09,-3.12c0.08,0.37 0.23,0.72 0.45,0.96c0.19,0.19 0.73,0.4 1.09,0.35c0.76,-0.07 1.12,-0.53 1.31,-0.78c0.22,-0.37 0.18,-1.01 -0.06,-1.94l-1.5,-1.15s-0.04,-0.03 -0.08,-0.03a0.3,0.3 0 0 0 -0.14,-0.04l-0.02,0a0.3,0.3 0 0 0 -0.14,0.04c-0.03,0 -0.05,0.02 -0.08,0.03l-7.29,5.57l-2.18,1.66a0.35,0.35 0 0 0 -0.06,0.5a0.33,0.33 0 0 0 0.29,0.15c0.09,0 0.16,-0.02 0.22,-0.08l1.63,-1.25l0.02,7.11l-1.89,0a0.49,0.49 0 0 0 -0.49,0.49c0,0.28 0.22,0.49 0.49,0.49l19.02,0c0.27,0 0.49,-0.21 0.49,-0.49a0.49,0.49 0 0 0 -0.49,-0.49l0,0.03zm-6.34,-12.73l-0.13,-0.16c-0.47,-0.59 -0.22,-1.65 -0.18,-2.45c-0.47,0.59 -1.54,1.33 -1.22,2.48c0.03,0.1 0.04,0.18 0.07,0.28l2.3,1.76c0.01,-0.84 -0.43,-1.4 -0.84,-1.91" fill="#ffffff" id="svg_1"/>
 </g>
</svg>