<svg viewBox="0 0 24 24" xmlns="http://www.w3.org/2000/svg">
  <path d="M21.51 19.186h-1.912l.02-7.118 1.627 1.255a.35.35 0 0 0 .226.078.33.33 0 0 0 .284-.147.35.35 0 0 0-.059-.5l-2.176-1.666-3.51-2.697c0 .304-.069.648-.216 1.04-.392 1.01-.441 1.755-.137 2.215a.84.84 0 0 0 .725.393c.177 0 .353-.05.53-.128.44-.216.676-.716.804-1.147.48 1.04 1.107 3.245-.451 5.255-.55.725-1.569 1.863-3.902 1.863-1.657 0-2.834-.363-3.677-1.285a3.6 3.6 0 0 1-.862-1.843c-.108-.706-.108-1.48.02-2.127.205.255.44.549.99.588.382 0 .735-.216.95-.559.265-.412.285-.95.05-1.48-.334-.785-.618-2.177.088-3.118.078.373.225.726.45.96.187.197.726.403 1.089.354.755-.069 1.117-.53 1.313-.784.216-.363.177-1.01-.068-1.942l-1.5-1.147s-.04-.03-.079-.03a.3.3 0 0 0-.137-.038h-.02a.3.3 0 0 0-.137.039c-.03 0-.049.02-.078.03L4.46 11.067l-2.177 1.667a.35.35 0 0 0-.059.5.33.33 0 0 0 .285.147c.088 0 .157-.02.225-.079l1.628-1.255.02 7.118H2.49a.485.485 0 0 0-.49.49c0 .275.216.49.49.49h19.02c.274 0 .49-.215.49-.49a.485.485 0 0 0-.49-.49zM15.166 6.46l-.127-.156c-.47-.599-.216-1.657-.177-2.451-.47.588-1.539 1.323-1.225 2.48.03.098.039.176.068.274l2.304 1.765c.01-.843-.431-1.402-.843-1.912"/>
</svg>
