<svg id="SvgjsSvg1126" width="288" height="288" xmlns="http://www.w3.org/2000/svg" version="1.1" xmlns:xlink="http://www.w3.org/1999/xlink" xmlns:svgjs="http://svgjs.com/svgjs"><defs id="SvgjsDefs1127"></defs><g id="SvgjsG1128"><svg xmlns="http://www.w3.org/2000/svg" viewBox="0 0 24 24" width="288" height="288"><path d="M6.916265,15.233218c-.764188-.043073-1.095576-.456935-1.376421-.811211-.188402.901405-.189729,1.971973-.033468,2.958316.150206.948126.54843,1.854129,1.19549,2.563226,1.165517,1.277262,2.809382,1.783151,5.109571,1.783151,3.242336,0,4.652185-1.583245,5.420321-2.594947,2.167124-2.790268,1.285468-5.855491.622392-7.304993-.173294.604746-.500165,1.29635-1.112049,1.596914-.248273.121878-.495572.183628-.735234.183628-.422715,0-.782483-.192763-1.013109-.542771-.416201-.630629-.350932-1.664779.19441-3.073098.788922-2.037924-.090104-3.131603-.865673-4.096565-.059778-.07408-.118932-.14801-.176314-.220493-.659956-.83687-.298871-2.308521-.240515-3.401076-.655488.814381-2.140308,1.836089-1.706428,3.441448.434545,1.517295.513466,2.530116.184628,3.082174-.261992.357829-.767926.999635-1.819448,1.092417-.497571.055482-1.251933-.223028-1.51029-.497184-.307851-.325772-.515815-.823192-.621044-1.334688-.968556,1.310103-.58066,3.250236-.116162,4.336801.31509.735459.287984,1.485419-.074629,2.056869-.305505.482169-.794201.790133-1.326027.782083Z" fill="#ffffff" class="svgShape color000000-0 selectable"></path></svg></g></svg>