<svg viewBox="0 0 24 24" xmlns="http://www.w3.org/2000/svg">
  <path d="M18.083 19.122h3.425v-.018c.276 0 .492.197.492.448 0 .25-.216.448-.492.448H2.492C2.217 20 2 19.803 2 19.552c0-.25.217-.448.492-.448h4.43v-1.81H2.59a.34.34 0 0 1-.306-.17.28.28 0 0 1 .03-.322l1.949-2.472h-.886a.38.38 0 0 1-.295-.17.3.3 0 0 1 .02-.323l2.076-2.858h-.994c-.128 0-.256-.071-.305-.17a.3.3 0 0 1 .03-.322l1.9-2.446h-.523a.35.35 0 0 1-.295-.152.3.3 0 0 1 0-.305l1.762-3.019c.01-.044.03-.08.05-.116.127-.188.472-.188.6 0 .02.027.039.09.039.09l1.772 3.036a.27.27 0 0 1 0 .305.36.36 0 0 1-.296.161h-.521l1.9 2.437a.28.28 0 0 1 .029.322.36.36 0 0 1-.305.17h-.994l2.047 2.822c.118.054.256.099.433.108.305 0 .61-.162.807-.448.246-.35.256-.816.04-1.281-.473-1.013-.72-2.571.137-3.628a.38.38 0 0 1 .354-.117.32.32 0 0 1 .266.242c.079.367.236.68.433.869.138.134.67.322.985.287.765-.063 1.12-.5 1.287-.706l.002-.002c.197-.296.128-1.012-.207-2.087-.344-1.156.492-1.953 1.112-2.535q.222-.202.384-.377a.38.38 0 0 1 .394-.098.33.33 0 0 1 .216.313q-.011.18-.034.368l-.025.224c-.078.654-.157 1.397.188 1.8l.147.17.01.012c.668.76 1.502 1.708.768 3.428-.414.968-.483 1.684-.197 2.07.216.295.61.358 1.033.17.414-.188.64-.663.758-1.03a.33.33 0 0 1 .305-.224.35.35 0 0 1 .335.179c.502.994 1.447 3.556-.561 5.912-.522.618-1.23 1.299-2.362 1.711M7.906 17.295v1.81h4.872a4.4 4.4 0 0 1-1.743-1.067 3.6 3.6 0 0 1-.57-.743z"/>
</svg>
