<?xml version="1.0"?>
<svg width="24" height="24" xmlns="http://www.w3.org/2000/svg" xmlns:svg="http://www.w3.org/2000/svg">
 <g class="layer">
  <title>Layer 1</title>
  <path d="m6.92,15.23c-0.77,-0.04 -1.1,-0.45 -1.38,-0.81c-0.19,0.9 -0.19,1.97 -0.03,2.96c0.15,0.95 0.54,1.85 1.19,2.56c1.17,1.28 2.81,1.79 5.11,1.79c3.24,0 4.65,-1.59 5.42,-2.6c2.17,-2.79 1.29,-5.85 0.62,-7.3c-0.17,0.6 -0.5,1.29 -1.11,1.59c-0.25,0.13 -0.49,0.19 -0.73,0.19c-0.43,0 -0.79,-0.2 -1.02,-0.55c-0.41,-0.63 -0.35,-1.66 0.2,-3.07c0.79,-2.04 -0.09,-3.13 -0.87,-4.1c-0.06,-0.07 -0.12,-0.14 -0.17,-0.22c-0.66,-0.83 -0.3,-2.3 -0.24,-3.4c-0.66,0.82 -2.14,1.84 -1.71,3.44c0.43,1.52 0.51,2.53 0.18,3.09c-0.26,0.35 -0.76,1 -1.82,1.09c-0.49,0.05 -1.25,-0.22 -1.51,-0.5c-0.3,-0.32 -0.51,-0.82 -0.62,-1.33c-0.97,1.31 -0.58,3.25 -0.11,4.33c0.31,0.74 0.28,1.49 -0.08,2.06c-0.3,0.48 -0.79,0.79 -1.32,0.78z" fill="#ffffff" id="svg_1"/>
 </g>
</svg>